<svg xmlns="http://www.w3.org/2000/svg" xmlns:xlink="http://www.w3.org/1999/xlink" contentStyleType="text/css" data-diagram-type="SEQUENCE" height="595px" preserveAspectRatio="none" style="width:939px;height:595px;background:#FFFFFF;" version="1.1" viewBox="0 0 939 595" width="939px" zoomAndPan="magnify"><defs/><g><rect fill="#FFFFFF" height="574.6484" style="stroke:#181818;stroke-width:1.5;" width="928.7705" x="5" y="15"/><path d="M205.4697,15 L205.4697,24.2969 L195.4697,34.2969 L5,34.2969 " fill="transparent" style="stroke:#181818;stroke-width:1.5;"/><text fill="#000000" font-family="sans-serif" font-size="14" lengthAdjust="spacing" textLength="190.4697" x="8" y="28.9951">Random Generator System</text><g><title>User Interface</title><rect fill="#FFFFFF" height="398.3281" style="stroke:#181818;stroke-width:1;" width="10" x="66.5195" y="84.5938"/></g><g><title>User Interface</title><rect fill="#FFFFFF" height="14" style="stroke:#181818;stroke-width:1;" width="10" x="71.5195" y="177.9922"/></g><g><title>User Interface</title><rect fill="#FFFFFF" height="14" style="stroke:#181818;stroke-width:1;" width="10" x="66.5195" y="512.0547"/></g><g><title>Generator</title><rect fill="#FFFFFF" height="377.1953" style="stroke:#181818;stroke-width:1;" width="10" x="228.1328" y="105.7266"/></g><g><title>Generator</title><rect fill="#FFFFFF" height="14" style="stroke:#181818;stroke-width:1;" width="10" x="233.1328" y="177.9922"/></g><g><title>Dictionary</title><rect fill="#FFFFFF" height="14" style="stroke:#181818;stroke-width:1;" width="10" x="383.8174" y="221.125"/></g><g><title>Dictionary</title><rect fill="#FFFFFF" height="14" style="stroke:#181818;stroke-width:1;" width="10" x="383.8174" y="312.5234"/></g><g><title>History</title><rect fill="#FFFFFF" height="14" style="stroke:#181818;stroke-width:1;" width="10" x="468.623" y="447.9219"/></g><g><title>History</title><rect fill="#FFFFFF" height="14" style="stroke:#181818;stroke-width:1;" width="10" x="468.623" y="512.0547"/></g><g><title>Analyze Syntax Interface</title><rect fill="#FFFFFF" height="14" style="stroke:#181818;stroke-width:1;" width="10" x="605.0981" y="134.8594"/></g><g><title>Moderate Text Interface</title><rect fill="#FFFFFF" height="14" style="stroke:#181818;stroke-width:1;" width="10" x="801.2202" y="397.7891"/></g><rect fill="transparent" height="219.7969" style="stroke:#000000;stroke-width:1.5;" width="747.1846" x="170.5859" y="250.125"/><rect fill="transparent" height="145.5313" style="stroke:#000000;stroke-width:1.5;" width="727.1846" x="180.5859" y="274.2578"/><g><title>User Interface</title><rect fill="transparent" height="469.4609" width="8" x="67.5195" y="74.5938"/><line style="stroke:#181818;stroke-width:0.5;stroke-dasharray:5.0,5.0;" x1="71" x2="71" y1="74.5938" y2="544.0547"/></g><g><title>Generator</title><rect fill="transparent" height="469.4609" width="8" x="229.1328" y="74.5938"/><line style="stroke:#181818;stroke-width:0.5;stroke-dasharray:5.0,5.0;" x1="232.5859" x2="232.5859" y1="74.5938" y2="544.0547"/></g><g><title>Dictionary</title><rect fill="transparent" height="469.4609" width="8" x="384.8174" y="74.5938"/><line style="stroke:#181818;stroke-width:0.5;stroke-dasharray:5.0,5.0;" x1="387.915" x2="387.915" y1="74.5938" y2="544.0547"/></g><g><title>History</title><rect fill="transparent" height="469.4609" width="8" x="469.623" y="74.5938"/><line style="stroke:#181818;stroke-width:0.5;stroke-dasharray:5.0,5.0;" x1="472.7197" x2="472.7197" y1="74.5938" y2="544.0547"/></g><g><title>Analyze Syntax Interface</title><rect fill="transparent" height="469.4609" width="8" x="606.0981" y="74.5938"/><line style="stroke:#181818;stroke-width:0.5;stroke-dasharray:5.0,5.0;" x1="609.5264" x2="609.5264" y1="74.5938" y2="544.0547"/></g><g><title>Moderate Text Interface</title><rect fill="transparent" height="469.4609" width="8" x="802.2202" y="74.5938"/><line style="stroke:#181818;stroke-width:0.5;stroke-dasharray:5.0,5.0;" x1="805.6699" x2="805.6699" y1="74.5938" y2="544.0547"/></g><rect fill="#E2E2F0" height="30.2969" rx="2.5" ry="2.5" style="stroke:#181818;stroke-width:0.5;" width="113.0391" x="15" y="43.2969"/><text fill="#000000" font-family="sans-serif" font-size="14" lengthAdjust="spacing" textLength="99.0391" x="22" y="63.292">User Interface</text><rect fill="#E2E2F0" height="30.2969" rx="2.5" ry="2.5" style="stroke:#181818;stroke-width:0.5;" width="113.0391" x="15" y="543.0547"/><text fill="#000000" font-family="sans-serif" font-size="14" lengthAdjust="spacing" textLength="99.0391" x="22" y="563.0498">User Interface</text><rect fill="#E2E2F0" height="30.2969" rx="2.5" ry="2.5" style="stroke:#181818;stroke-width:0.5;" width="85.0938" x="190.5859" y="43.2969"/><text fill="#000000" font-family="sans-serif" font-size="14" lengthAdjust="spacing" textLength="71.0938" x="197.5859" y="63.292">Generator</text><rect fill="#E2E2F0" height="30.2969" rx="2.5" ry="2.5" style="stroke:#181818;stroke-width:0.5;" width="85.0938" x="190.5859" y="543.0547"/><text fill="#000000" font-family="sans-serif" font-size="14" lengthAdjust="spacing" textLength="71.0938" x="197.5859" y="563.0498">Generator</text><rect fill="#E2E2F0" height="30.2969" rx="2.5" ry="2.5" style="stroke:#181818;stroke-width:0.5;" width="85.8047" x="345.915" y="43.2969"/><text fill="#000000" font-family="sans-serif" font-size="14" lengthAdjust="spacing" textLength="71.8047" x="352.915" y="63.292">Dictionary</text><rect fill="#E2E2F0" height="30.2969" rx="2.5" ry="2.5" style="stroke:#181818;stroke-width:0.5;" width="85.8047" x="345.915" y="543.0547"/><text fill="#000000" font-family="sans-serif" font-size="14" lengthAdjust="spacing" textLength="71.8047" x="352.915" y="563.0498">Dictionary</text><rect fill="#E2E2F0" height="30.2969" rx="2.5" ry="2.5" style="stroke:#181818;stroke-width:0.5;" width="63.8066" x="441.7197" y="43.2969"/><text fill="#000000" font-family="sans-serif" font-size="14" lengthAdjust="spacing" textLength="49.8066" x="448.7197" y="63.292">History</text><rect fill="#E2E2F0" height="30.2969" rx="2.5" ry="2.5" style="stroke:#181818;stroke-width:0.5;" width="63.8066" x="441.7197" y="543.0547"/><text fill="#000000" font-family="sans-serif" font-size="14" lengthAdjust="spacing" textLength="49.8066" x="448.7197" y="563.0498">History</text><rect fill="#E2E2F0" height="30.2969" rx="2.5" ry="2.5" style="stroke:#181818;stroke-width:0.5;" width="189.1436" x="515.5264" y="43.2969"/><text fill="#000000" font-family="sans-serif" font-size="14" lengthAdjust="spacing" textLength="175.1436" x="522.5264" y="63.292">Analyze Syntax Interface</text><rect fill="#E2E2F0" height="30.2969" rx="2.5" ry="2.5" style="stroke:#181818;stroke-width:0.5;" width="189.1436" x="515.5264" y="543.0547"/><text fill="#000000" font-family="sans-serif" font-size="14" lengthAdjust="spacing" textLength="175.1436" x="522.5264" y="563.0498">Analyze Syntax Interface</text><rect fill="#E2E2F0" height="30.2969" rx="2.5" ry="2.5" style="stroke:#181818;stroke-width:0.5;" width="183.1006" x="714.6699" y="43.2969"/><text fill="#000000" font-family="sans-serif" font-size="14" lengthAdjust="spacing" textLength="169.1006" x="721.6699" y="63.292">Moderate Text Interface</text><rect fill="#E2E2F0" height="30.2969" rx="2.5" ry="2.5" style="stroke:#181818;stroke-width:0.5;" width="183.1006" x="714.6699" y="543.0547"/><text fill="#000000" font-family="sans-serif" font-size="14" lengthAdjust="spacing" textLength="169.1006" x="721.6699" y="563.0498">Moderate Text Interface</text><g><title>User Interface</title><rect fill="#FFFFFF" height="398.3281" style="stroke:#181818;stroke-width:1;" width="10" x="66.5195" y="84.5938"/></g><g><title>User Interface</title><rect fill="#FFFFFF" height="14" style="stroke:#181818;stroke-width:1;" width="10" x="71.5195" y="177.9922"/></g><g><title>User Interface</title><rect fill="#FFFFFF" height="14" style="stroke:#181818;stroke-width:1;" width="10" x="66.5195" y="512.0547"/></g><g><title>Generator</title><rect fill="#FFFFFF" height="377.1953" style="stroke:#181818;stroke-width:1;" width="10" x="228.1328" y="105.7266"/></g><g><title>Generator</title><rect fill="#FFFFFF" height="14" style="stroke:#181818;stroke-width:1;" width="10" x="233.1328" y="177.9922"/></g><g><title>Dictionary</title><rect fill="#FFFFFF" height="14" style="stroke:#181818;stroke-width:1;" width="10" x="383.8174" y="221.125"/></g><g><title>Dictionary</title><rect fill="#FFFFFF" height="14" style="stroke:#181818;stroke-width:1;" width="10" x="383.8174" y="312.5234"/></g><g><title>History</title><rect fill="#FFFFFF" height="14" style="stroke:#181818;stroke-width:1;" width="10" x="468.623" y="447.9219"/></g><g><title>History</title><rect fill="#FFFFFF" height="14" style="stroke:#181818;stroke-width:1;" width="10" x="468.623" y="512.0547"/></g><g><title>Analyze Syntax Interface</title><rect fill="#FFFFFF" height="14" style="stroke:#181818;stroke-width:1;" width="10" x="605.0981" y="134.8594"/></g><g><title>Moderate Text Interface</title><rect fill="#FFFFFF" height="14" style="stroke:#181818;stroke-width:1;" width="10" x="801.2202" y="397.7891"/></g><polygon fill="#181818" points="216.1328,101.7266,226.1328,105.7266,216.1328,109.7266,220.1328,105.7266" style="stroke:#181818;stroke-width:1;"/><line style="stroke:#181818;stroke-width:1;" x1="76.5195" x2="222.1328" y1="105.7266" y2="105.7266"/><text fill="#000000" font-family="sans-serif" font-size="13" lengthAdjust="spacing" textLength="128.4575" x="83.5195" y="100.6606">GenerateSentences</text><polygon fill="#181818" points="593.0981,130.8594,603.0981,134.8594,593.0981,138.8594,597.0981,134.8594" style="stroke:#181818;stroke-width:1;"/><line style="stroke:#181818;stroke-width:1;" x1="238.1328" x2="599.0981" y1="134.8594" y2="134.8594"/><text fill="#000000" font-family="sans-serif" font-size="13" lengthAdjust="spacing" textLength="112.1948" x="245.1328" y="129.7935">AnalyzeSentence</text><polygon fill="#181818" points="249.1328,144.8594,239.1328,148.8594,249.1328,152.8594,245.1328,148.8594" style="stroke:#181818;stroke-width:1;"/><line style="stroke:#181818;stroke-width:1;stroke-dasharray:2.0,2.0;" x1="243.1328" x2="609.0981" y1="148.8594" y2="148.8594"/><polygon fill="#181818" points="221.1328,173.9922,231.1328,177.9922,221.1328,181.9922,225.1328,177.9922" style="stroke:#181818;stroke-width:1;"/><line style="stroke:#181818;stroke-width:1;" x1="81.5195" x2="227.1328" y1="177.9922" y2="177.9922"/><text fill="#000000" font-family="sans-serif" font-size="13" lengthAdjust="spacing" textLength="127.6133" x="88.5195" y="172.9263">RequestSyntaxTree</text><polygon fill="#181818" points="87.5195,187.9922,77.5195,191.9922,87.5195,195.9922,83.5195,191.9922" style="stroke:#181818;stroke-width:1;"/><line style="stroke:#181818;stroke-width:1;stroke-dasharray:2.0,2.0;" x1="81.5195" x2="227.1328" y1="191.9922" y2="191.9922"/><polygon fill="#181818" points="371.8174,217.125,381.8174,221.125,371.8174,225.125,375.8174,221.125" style="stroke:#181818;stroke-width:1;"/><line style="stroke:#181818;stroke-width:1;" x1="238.1328" x2="377.8174" y1="221.125" y2="221.125"/><text fill="#000000" font-family="sans-serif" font-size="13" lengthAdjust="spacing" textLength="113.7563" x="245.1328" y="216.0591">UpdateDictionary</text><polygon fill="#181818" points="249.1328,231.125,239.1328,235.125,249.1328,239.125,245.1328,235.125" style="stroke:#181818;stroke-width:1;"/><line style="stroke:#181818;stroke-width:1;stroke-dasharray:2.0,2.0;" x1="243.1328" x2="387.8174" y1="235.125" y2="235.125"/><path d="M170.5859,250.125 L247.21,250.125 L247.21,257.2578 L237.21,267.2578 L170.5859,267.2578 L170.5859,250.125 " fill="#EEEEEE" style="stroke:#000000;stroke-width:1.5;"/><rect fill="transparent" height="219.7969" style="stroke:#000000;stroke-width:1.5;" width="747.1846" x="170.5859" y="250.125"/><text fill="#000000" font-family="sans-serif" font-size="13" font-weight="bold" lengthAdjust="spacing" textLength="31.624" x="185.5859" y="263.1919">loop</text><text fill="#000000" font-family="sans-serif" font-size="11" font-weight="bold" lengthAdjust="spacing" textLength="277.0571" x="262.21" y="262.3354">[for given number of sentences to generate]</text><path d="M180.5859,274.2578 L257.21,274.2578 L257.21,281.3906 L247.21,291.3906 L180.5859,291.3906 L180.5859,274.2578 " fill="#EEEEEE" style="stroke:#000000;stroke-width:1.5;"/><rect fill="transparent" height="145.5313" style="stroke:#000000;stroke-width:1.5;" width="727.1846" x="180.5859" y="274.2578"/><text fill="#000000" font-family="sans-serif" font-size="13" font-weight="bold" lengthAdjust="spacing" textLength="31.624" x="195.5859" y="287.3247">loop</text><text fill="#000000" font-family="sans-serif" font-size="11" font-weight="bold" lengthAdjust="spacing" textLength="101.3633" x="272.21" y="286.4683">[while not valid]</text><polygon fill="#181818" points="371.8174,308.5234,381.8174,312.5234,371.8174,316.5234,375.8174,312.5234" style="stroke:#181818;stroke-width:1;"/><line style="stroke:#181818;stroke-width:1;" x1="238.1328" x2="377.8174" y1="312.5234" y2="312.5234"/><text fill="#000000" font-family="sans-serif" font-size="13" lengthAdjust="spacing" textLength="54.209" x="245.1328" y="307.4575">GetData</text><polygon fill="#181818" points="249.1328,322.5234,239.1328,326.5234,249.1328,330.5234,245.1328,326.5234" style="stroke:#181818;stroke-width:1;"/><line style="stroke:#181818;stroke-width:1;" x1="243.1328" x2="387.8174" y1="326.5234" y2="326.5234"/><line style="stroke:#181818;stroke-width:1;" x1="238.1328" x2="280.1328" y1="355.6563" y2="355.6563"/><line style="stroke:#181818;stroke-width:1;" x1="280.1328" x2="280.1328" y1="355.6563" y2="368.6563"/><line style="stroke:#181818;stroke-width:1;" x1="239.1328" x2="280.1328" y1="368.6563" y2="368.6563"/><polygon fill="#181818" points="249.1328,364.6563,239.1328,368.6563,249.1328,372.6563,245.1328,368.6563" style="stroke:#181818;stroke-width:1;"/><text fill="#000000" font-family="sans-serif" font-size="13" lengthAdjust="spacing" textLength="121.6846" x="245.1328" y="350.5903">GenerateSentence</text><polygon fill="#181818" points="789.2202,393.7891,799.2202,397.7891,789.2202,401.7891,793.2202,397.7891" style="stroke:#181818;stroke-width:1;"/><line style="stroke:#181818;stroke-width:1;" x1="238.1328" x2="795.2202" y1="397.7891" y2="397.7891"/><text fill="#000000" font-family="sans-serif" font-size="13" lengthAdjust="spacing" textLength="88.7275" x="245.1328" y="392.7231">CheckValidity</text><polygon fill="#181818" points="249.1328,407.7891,239.1328,411.7891,249.1328,415.7891,245.1328,411.7891" style="stroke:#181818;stroke-width:1;"/><line style="stroke:#181818;stroke-width:1;stroke-dasharray:2.0,2.0;" x1="243.1328" x2="805.2202" y1="411.7891" y2="411.7891"/><polygon fill="#181818" points="456.623,443.9219,466.623,447.9219,456.623,451.9219,460.623,447.9219" style="stroke:#181818;stroke-width:1;"/><line style="stroke:#181818;stroke-width:1;" x1="238.1328" x2="462.623" y1="447.9219" y2="447.9219"/><text fill="#000000" font-family="sans-serif" font-size="13" lengthAdjust="spacing" textLength="93.3296" x="245.1328" y="442.856">UpdateHistory</text><polygon fill="#181818" points="249.1328,457.9219,239.1328,461.9219,249.1328,465.9219,245.1328,461.9219" style="stroke:#181818;stroke-width:1;"/><line style="stroke:#181818;stroke-width:1;stroke-dasharray:2.0,2.0;" x1="243.1328" x2="472.623" y1="461.9219" y2="461.9219"/><polygon fill="#181818" points="82.5195,478.9219,72.5195,482.9219,82.5195,486.9219,78.5195,482.9219" style="stroke:#181818;stroke-width:1;"/><line style="stroke:#181818;stroke-width:1;stroke-dasharray:2.0,2.0;" x1="76.5195" x2="232.1328" y1="482.9219" y2="482.9219"/><polygon fill="#181818" points="456.623,508.0547,466.623,512.0547,456.623,516.0547,460.623,512.0547" style="stroke:#181818;stroke-width:1;"/><line style="stroke:#181818;stroke-width:1;" x1="76.5195" x2="462.623" y1="512.0547" y2="512.0547"/><text fill="#000000" font-family="sans-serif" font-size="13" lengthAdjust="spacing" textLength="69.418" x="83.5195" y="506.9888">GetHistory</text><polygon fill="#181818" points="82.5195,522.0547,72.5195,526.0547,82.5195,530.0547,78.5195,526.0547" style="stroke:#181818;stroke-width:1;"/><line style="stroke:#181818;stroke-width:1;stroke-dasharray:2.0,2.0;" x1="76.5195" x2="472.623" y1="526.0547" y2="526.0547"/><!--SRC=[bLJBReCm4Bpp5Ilk-G5KLQeQAUsXbpnwtyAIM0MRcasQzEjhb1ZRW4bxIsR7E-FrB3KAMMgi2TOe2rN3YYHfPALXSscPwYHfKBF8HOEI8TsrfE5LCkaISqg3OdyqG9SYPw4awai0luZMC4CiVP9ONNx8I4l6SqmdVLD59qImfJFxh0IDrgchZ8mE0LWyEiEP_KaRCWoPK-lrSlTomp6dusupk9LiDyzN_8gk-SDYCKSiw2_jxjruJLz7QlbwSAk9PeOtCOfHzywqAtiU9y6HH3XR5veCTarXJdWnwfjuM3Wyh-1fUcXIATL0QUXxSI89ybX_63-gXDO605Z1_fQAA_tx82e2gHXEM8aYxdX5l4J6kqRl-mmat9znNWVHZ6r81iy7oZ_VE_-2lL76TseGooZFVzmeYUHWRBVFW7rb-rNeMraWT65HJzD2dO8lqKrZcBN_XtDgbthhvhb7lkChPAcJ2pHpiJc3lm00]--></g></svg>