<svg xmlns="http://www.w3.org/2000/svg" xmlns:xlink="http://www.w3.org/1999/xlink" contentStyleType="text/css" data-diagram-type="CLASS" height="568px" preserveAspectRatio="none" style="width:677px;height:568px;background:#FFFFFF;" version="1.1" viewBox="0 0 677 568" width="677px" zoomAndPan="magnify"><defs/><g><g id="elem_User"><rect fill="#F1F1F1" height="36.2969" rx="2.5" ry="2.5" style="stroke:#181818;stroke-width:0.5;" width="45.9102" x="147" y="7"/><text fill="#000000" font-family="sans-serif" font-size="14" lengthAdjust="spacing" textLength="31.9102" x="154" y="21.9951">User</text><line style="stroke:#181818;stroke-width:0.5;" x1="148" x2="191.9102" y1="27.2969" y2="27.2969"/></g><g id="elem_Sentence"><rect fill="#F1F1F1" height="36.2969" rx="2.5" ry="2.5" style="stroke:#181818;stroke-width:0.5;" width="79.6592" x="130" y="120"/><text fill="#000000" font-family="sans-serif" font-size="14" lengthAdjust="spacing" textLength="65.6592" x="137" y="134.9951">Sentence</text><line style="stroke:#181818;stroke-width:0.5;" x1="131" x2="208.6592" y1="140.2969" y2="140.2969"/></g><g id="elem_Grammatical Analyzer"><rect fill="#F1F1F1" height="36.2969" rx="2.5" ry="2.5" style="stroke:#181818;stroke-width:0.5;" width="169.9551" x="7" y="233"/><text fill="#000000" font-family="sans-serif" font-size="14" lengthAdjust="spacing" textLength="155.9551" x="14" y="247.9951">Grammatical Analyzer</text><line style="stroke:#181818;stroke-width:0.5;" x1="8" x2="175.9551" y1="253.2969" y2="253.2969"/></g><g id="elem_Syntactic Tree"><rect fill="#F1F1F1" height="36.2969" rx="2.5" ry="2.5" style="stroke:#181818;stroke-width:0.5;" width="114.8711" x="190.5" y="358.5"/><text fill="#000000" font-family="sans-serif" font-size="14" lengthAdjust="spacing" textLength="100.8711" x="197.5" y="373.4951">Syntactic Tree</text><line style="stroke:#181818;stroke-width:0.5;" x1="191.5" x2="304.3711" y1="378.7969" y2="378.7969"/></g><g id="elem_Dictionary"><rect fill="#F1F1F1" height="77.1875" rx="2.5" ry="2.5" style="stroke:#181818;stroke-width:0.5;" width="85.8047" x="288" y="484"/><text fill="#000000" font-family="sans-serif" font-size="14" lengthAdjust="spacing" textLength="71.8047" x="295" y="498.9951">Dictionary</text><line style="stroke:#181818;stroke-width:0.5;" x1="289" x2="372.8047" y1="504.2969" y2="504.2969"/><text fill="#000000" font-family="sans-serif" font-size="14" lengthAdjust="spacing" textLength="42.4785" x="294" y="521.292">nouns</text><text fill="#000000" font-family="sans-serif" font-size="14" lengthAdjust="spacing" textLength="38.835" x="294" y="537.5889">verbs</text><text fill="#000000" font-family="sans-serif" font-size="14" lengthAdjust="spacing" textLength="71.2373" x="294" y="553.8857">adjectives</text></g><g id="elem_Generator"><rect fill="#F1F1F1" height="36.2969" rx="2.5" ry="2.5" style="stroke:#181818;stroke-width:0.5;" width="85.0938" x="370.5" y="233"/><text fill="#000000" font-family="sans-serif" font-size="14" lengthAdjust="spacing" textLength="71.0938" x="377.5" y="247.9951">Generator</text><line style="stroke:#181818;stroke-width:0.5;" x1="371.5" x2="454.5938" y1="253.2969" y2="253.2969"/></g><g id="elem_Random Sentence"><rect fill="#F1F1F1" height="60.8906" rx="2.5" ry="2.5" style="stroke:#181818;stroke-width:0.5;" width="142.3789" x="461" y="346"/><text fill="#000000" font-family="sans-serif" font-size="14" lengthAdjust="spacing" textLength="128.3789" x="468" y="360.9951">Random Sentence</text><line style="stroke:#181818;stroke-width:0.5;" x1="462" x2="602.3789" y1="366.2969" y2="366.2969"/><text fill="#000000" font-family="sans-serif" font-size="14" lengthAdjust="spacing" textLength="31.5684" x="467" y="383.292">date</text><text fill="#000000" font-family="sans-serif" font-size="14" lengthAdjust="spacing" textLength="88.792" x="467" y="399.5889">toxicityLevel</text></g><g id="elem_Toxicity Analyzer"><rect fill="#F1F1F1" height="36.2969" rx="2.5" ry="2.5" style="stroke:#181818;stroke-width:0.5;" width="134.0254" x="414" y="504.5"/><text fill="#000000" font-family="sans-serif" font-size="14" lengthAdjust="spacing" textLength="120.0254" x="421" y="519.4951">Toxicity Analyzer</text><line style="stroke:#181818;stroke-width:0.5;" x1="415" x2="547.0254" y1="524.7969" y2="524.7969"/></g><g id="elem_History"><rect fill="#F1F1F1" height="36.2969" rx="2.5" ry="2.5" style="stroke:#181818;stroke-width:0.5;" width="63.8066" x="583" y="504.5"/><text fill="#000000" font-family="sans-serif" font-size="14" lengthAdjust="spacing" textLength="49.8066" x="590" y="519.4951">History</text><line style="stroke:#181818;stroke-width:0.5;" x1="584" x2="645.8066" y1="524.7969" y2="524.7969"/></g><!--link User to Sentence--><g id="link_User_Sentence"><path codeLine="18" d="M170,43.34 C170,64.2 170,98.98 170,119.78 " fill="transparent" id="User-Sentence" style="stroke:#181818;stroke-width:1;"/><polygon fill="#000000" points="175,86.5664,177.9389,77.5213,172.0611,77.5213,175,86.5664" style="stroke:#000000;stroke-width:1;"/><text fill="#000000" font-family="sans-serif" font-size="13" lengthAdjust="spacing" textLength="39.2666" x="184" y="86.0669">GIVES</text><text fill="#000000" font-family="sans-serif" font-size="13" lengthAdjust="spacing" textLength="8.271" x="160.8303" y="63.2953">1</text><text fill="#000000" font-family="sans-serif" font-size="13" lengthAdjust="spacing" textLength="6.5" x="163.21" y="108.945">*</text></g><!--link Sentence to Grammatical Analyzer--><g id="link_Sentence_Grammatical Analyzer"><path codeLine="19" d="M157.81,156.34 C143.16,177.2 118.72,211.98 104.1,232.78 " fill="transparent" id="Sentence-Grammatical Analyzer" style="stroke:#181818;stroke-width:1;"/><polygon fill="#000000" points="143.8746,190.4753,136.2698,196.1865,141.0791,199.5658,143.8746,190.4753" style="stroke:#000000;stroke-width:1;"/><text fill="#000000" font-family="sans-serif" font-size="13" lengthAdjust="spacing" textLength="68.0659" x="150" y="199.0669">ANALYZES</text><text fill="#000000" font-family="sans-serif" font-size="13" lengthAdjust="spacing" textLength="6.5" x="147.2868" y="176.2953">*</text><text fill="#000000" font-family="sans-serif" font-size="13" lengthAdjust="spacing" textLength="8.271" x="98.629" y="221.945">1</text></g><!--link Grammatical Analyzer to Syntactic Tree--><g id="link_Grammatical Analyzer_Syntactic Tree"><path codeLine="20" d="M103.63,269.2 C113.52,282.98 128.69,302.22 145,316 C165.03,332.93 190.54,347.7 211.16,358.29 " fill="transparent" id="Grammatical Analyzer-Syntactic Tree" style="stroke:#181818;stroke-width:1;"/><polygon fill="#000000" points="153.8502,310.7564,148.7601,302.7226,145.0101,307.2488,153.8502,310.7564" style="stroke:#000000;stroke-width:1;"/><text fill="#000000" font-family="sans-serif" font-size="13" lengthAdjust="spacing" textLength="61.7119" x="159" y="312.0669">RETURNS</text><text fill="#000000" font-family="sans-serif" font-size="13" lengthAdjust="spacing" textLength="8.271" x="98.1124" y="289.4326">1</text><text fill="#000000" font-family="sans-serif" font-size="13" lengthAdjust="spacing" textLength="6.5" x="193.0553" y="347.4581">*</text></g><!--reverse link Syntactic Tree to Sentence--><g id="link_Syntactic Tree_Sentence"><path codeLine="21" d="M250.9135,346.3646 C253.9235,311.5446 255.62,243.1 225,186 C218.65,174.16 208,164 197.75,156.19 " fill="transparent" id="Syntactic Tree-backto-Sentence" style="stroke:#181818;stroke-width:1;"/><polygon fill="#181818" points="249.88,358.32,254.3819,352.6868,250.9135,346.3646,246.4116,351.9978,249.88,358.32" style="stroke:#181818;stroke-width:1;"/><polygon fill="#000000" points="251.6539,246.251,251.2586,255.7534,256.9195,254.1709,251.6539,246.251" style="stroke:#000000;stroke-width:1;"/><text fill="#000000" font-family="sans-serif" font-size="13" lengthAdjust="spacing" textLength="73.8042" x="262" y="255.5669">DESCRIBES</text><text fill="#000000" font-family="sans-serif" font-size="13" lengthAdjust="spacing" textLength="8.271" x="241.292" y="347.4973">1</text><text fill="#000000" font-family="sans-serif" font-size="13" lengthAdjust="spacing" textLength="8.271" x="197.4178" y="176.4194">1</text></g><!--link Generator to Random Sentence--><g id="link_Generator_Random Sentence"><path codeLine="22" d="M429.55,269.17 C448.58,288.92 480.16,321.7 503.24,345.65 " fill="transparent" id="Generator-Random Sentence" style="stroke:#181818;stroke-width:1;"/><polygon fill="#000000" points="480.4692,311.167,476.3097,302.6143,472.0769,306.6926,480.4692,311.167" style="stroke:#000000;stroke-width:1;"/><text fill="#000000" font-family="sans-serif" font-size="13" lengthAdjust="spacing" textLength="59.6235" x="486" y="312.0669">CREATES</text><text fill="#000000" font-family="sans-serif" font-size="13" lengthAdjust="spacing" textLength="8.271" x="425.5786" y="289.3931">1</text><text fill="#000000" font-family="sans-serif" font-size="13" lengthAdjust="spacing" textLength="6.5" x="490.702" y="334.8322">*</text></g><!--link Generator to Syntactic Tree--><g id="link_Generator_Syntactic Tree"><path codeLine="23" d="M370.48,263.8 C348.45,271.37 322.04,282.85 302,299 C281.62,315.42 265.52,341.45 256.37,358.5 " fill="transparent" id="Generator-Syntactic Tree" style="stroke:#181818;stroke-width:1;"/><polygon fill="#000000" points="303.1524,310.7595,311.9896,307.2447,308.2359,302.7216,303.1524,310.7595" style="stroke:#000000;stroke-width:1;"/><text fill="#000000" font-family="sans-serif" font-size="13" lengthAdjust="spacing" textLength="34.2329" x="316" y="312.0669">USES</text><text fill="#000000" font-family="sans-serif" font-size="13" lengthAdjust="spacing" textLength="8.271" x="354.2094" y="261.7963">1</text><text fill="#000000" font-family="sans-serif" font-size="13" lengthAdjust="spacing" textLength="6.5" x="252.1819" y="347.4126">*</text></g><!--link Random Sentence to Toxicity Analyzer--><g id="link_Random Sentence_Toxicity Analyzer"><path codeLine="24" d="M517.52,407.1 C513.19,416.53 508.63,427.09 505,437 C496.6,459.91 489.33,487.19 485.05,504.43 " fill="transparent" id="Random Sentence-Toxicity Analyzer" style="stroke:#181818;stroke-width:1;"/><polygon fill="#000000" points="511.5823,440.8234,505.932,448.4735,511.5078,450.3337,511.5823,440.8234" style="stroke:#000000;stroke-width:1;"/><text fill="#000000" font-family="sans-serif" font-size="13" lengthAdjust="spacing" textLength="52.9204" x="519" y="450.0669">CHECKS</text><text fill="#000000" font-family="sans-serif" font-size="13" lengthAdjust="spacing" textLength="6.5" x="507.9272" y="427.05">*</text><text fill="#000000" font-family="sans-serif" font-size="13" lengthAdjust="spacing" textLength="8.271" x="477.1051" y="493.3203">1</text></g><!--link Generator to Dictionary--><g id="link_Generator_Dictionary"><path codeLine="25" d="M408.47,269.13 C399.13,304.09 376.8,386.08 355,454 C351.88,463.71 348.3,474.13 344.87,483.8 " fill="transparent" id="Generator-Dictionary" style="stroke:#181818;stroke-width:1;"/><polygon fill="#000000" points="389.5797,381.3604,394.9669,373.5228,389.3312,371.8531,389.5797,381.3604" style="stroke:#000000;stroke-width:1;"/><text fill="#000000" font-family="sans-serif" font-size="13" lengthAdjust="spacing" textLength="34.2329" x="400" y="381.0669">USES</text><text fill="#000000" font-family="sans-serif" font-size="13" lengthAdjust="spacing" textLength="8.271" x="397.7793" y="289.3403">1</text><text fill="#000000" font-family="sans-serif" font-size="13" lengthAdjust="spacing" textLength="8.271" x="338.6065" y="472.9216">1</text></g><!--link Random Sentence to History--><g id="link_Random Sentence_History"><path codeLine="26" d="M555.85,407.25 C562.76,416.51 570.04,426.94 576,437 C589.25,459.38 601.26,487.03 608.35,504.47 " fill="transparent" id="Random Sentence-History" style="stroke:#181818;stroke-width:1;"/><polygon fill="#000000" points="591.3758,449.9659,589.6639,440.6107,584.492,443.4036,591.3758,449.9659" style="stroke:#000000;stroke-width:1;"/><text fill="#000000" font-family="sans-serif" font-size="13" lengthAdjust="spacing" textLength="71.373" x="598" y="450.0669">STORED IN</text><text fill="#000000" font-family="sans-serif" font-size="13" lengthAdjust="spacing" textLength="6.5" x="553.9668" y="426.8712">*</text><text fill="#000000" font-family="sans-serif" font-size="13" lengthAdjust="spacing" textLength="8.271" x="597.0293" y="493.3731">1</text></g><!--link Syntactic Tree to Dictionary--><g id="link_Syntactic Tree_Dictionary"><path codeLine="27" d="M252.49,394.62 C257.08,410.61 265.09,434.82 276,454 C281.83,464.25 289.21,474.52 296.66,483.84 " fill="transparent" id="Syntactic Tree-Dictionary" style="stroke:#181818;stroke-width:1;"/><polygon fill="#000000" points="283.2184,450.0473,281.8391,440.6373,276.5715,443.2452,283.2184,450.0473" style="stroke:#000000;stroke-width:1;"/><text fill="#000000" font-family="sans-serif" font-size="13" lengthAdjust="spacing" textLength="60.6646" x="290" y="450.0669">UPDATES</text><text fill="#000000" font-family="sans-serif" font-size="13" lengthAdjust="spacing" textLength="6.5" x="247.0652" y="414.8271">*</text><text fill="#000000" font-family="sans-serif" font-size="13" lengthAdjust="spacing" textLength="8.271" x="282.1104" y="472.9684">1</text></g><!--SRC=[ZLBBReCm4BpxArO-8kNGQrH5ec0Hr8XMF2grDmVsG0MsP5nKMlNVQoVWf7LIzRImEpCxEo3thrXhg0PKH1wV2nGQHOtBEqqKxtkksvft40hUJH-eg9iMaz2yDbCe5QBhnwtfIS7Lz4a0X7mJWwaZghsjlB6WTiI1V2sC10KghgKpGdCk6jaxGzGgDLoZALg-jtMhfnsEs9qqQ3dtVQFRTZ3Q4o7sLg0t55Ohe05ryh2697rY1Mo8QzcvXHdqvHWCASp2tVEBuTsIAnXBNxRzpii8vAoiyipkzOQM6Sm6pdp6h8ZozExWrSLsVfCNtHgYd8Nb7mpVLrKSu9xMZrJym0qpshBetWRYhpBbz6lySydywGowA1zo5aEQmGRWGbp1bIMFyV7sRm00]--></g></svg>