<svg xmlns="http://www.w3.org/2000/svg" xmlns:xlink="http://www.w3.org/1999/xlink" contentStyleType="text/css" data-diagram-type="SEQUENCE" height="664px" preserveAspectRatio="none" style="width:735px;height:664px;background:#FFFFFF;" version="1.1" viewBox="0 0 735 664" width="735px" zoomAndPan="magnify"><defs/><g><rect fill="transparent" height="46.2656" style="stroke:#000000;stroke-width:1.5;" width="279.8989" x="10" y="185.6953"/><rect fill="transparent" height="190.7969" style="stroke:#000000;stroke-width:1.5;" width="536.1343" x="193.6929" y="288.0938"/><rect fill="transparent" height="117.5313" style="stroke:#000000;stroke-width:1.5;" width="516.1343" x="203.6929" y="312.2266"/><g><title>User</title><rect fill="transparent" height="501.9922" width="8" x="34.9551" y="81.2969"/><line style="stroke:#181818;stroke-width:0.5;stroke-dasharray:5.0,5.0;" x1="38" x2="38" y1="81.2969" y2="583.2891"/></g><g><title>System</title><rect fill="transparent" height="501.9922" width="8" x="242.7959" y="81.2969"/><line style="stroke:#181818;stroke-width:0.5;stroke-dasharray:5.0,5.0;" x1="246.6929" x2="246.6929" y1="81.2969" y2="583.2891"/></g><g><title>Analyze Syntax System</title><rect fill="transparent" height="501.9922" width="8" x="433.8638" y="81.2969"/><line style="stroke:#181818;stroke-width:0.5;stroke-dasharray:5.0,5.0;" x1="437.5283" x2="437.5283" y1="81.2969" y2="583.2891"/></g><g><title>Moderate Text System</title><rect fill="transparent" height="501.9922" width="8" x="619.5132" y="81.2969"/><line style="stroke:#181818;stroke-width:0.5;stroke-dasharray:5.0,5.0;" x1="623.1992" x2="623.1992" y1="81.2969" y2="583.2891"/></g><text fill="#000000" font-family="sans-serif" font-size="14" lengthAdjust="spacing" textLength="31.9102" x="20" y="77.9951">User</text><ellipse cx="38.9551" cy="13.5" fill="#E2E2F0" rx="8" ry="8" style="stroke:#181818;stroke-width:0.5;"/><path d="M38.9551,21.5 L38.9551,48.5 M25.9551,29.5 L51.9551,29.5 M38.9551,48.5 L25.9551,63.5 M38.9551,48.5 L51.9551,63.5 " fill="transparent" style="stroke:#181818;stroke-width:0.5;"/><text fill="#000000" font-family="sans-serif" font-size="14" lengthAdjust="spacing" textLength="31.9102" x="20" y="595.2842">User</text><ellipse cx="38.9551" cy="607.0859" fill="#E2E2F0" rx="8" ry="8" style="stroke:#181818;stroke-width:0.5;"/><path d="M38.9551,615.0859 L38.9551,642.0859 M25.9551,623.0859 L51.9551,623.0859 M38.9551,642.0859 L25.9551,657.0859 M38.9551,642.0859 L51.9551,657.0859 " fill="transparent" style="stroke:#181818;stroke-width:0.5;"/><rect fill="#E2E2F0" height="30.2969" rx="2.5" ry="2.5" style="stroke:#181818;stroke-width:0.5;" width="66.2061" x="213.6929" y="50"/><text fill="#000000" font-family="sans-serif" font-size="14" lengthAdjust="spacing" textLength="52.2061" x="220.6929" y="69.9951">System</text><rect fill="#E2E2F0" height="30.2969" rx="2.5" ry="2.5" style="stroke:#181818;stroke-width:0.5;" width="66.2061" x="213.6929" y="582.2891"/><text fill="#000000" font-family="sans-serif" font-size="14" lengthAdjust="spacing" textLength="52.2061" x="220.6929" y="602.2842">System</text><rect fill="#E2E2F0" height="30.2969" rx="2.5" ry="2.5" style="stroke:#181818;stroke-width:0.5;" width="178.6709" x="348.5283" y="50"/><text fill="#000000" font-family="sans-serif" font-size="14" lengthAdjust="spacing" textLength="164.6709" x="355.5283" y="69.9951">Analyze Syntax System</text><rect fill="#E2E2F0" height="30.2969" rx="2.5" ry="2.5" style="stroke:#181818;stroke-width:0.5;" width="178.6709" x="348.5283" y="582.2891"/><text fill="#000000" font-family="sans-serif" font-size="14" lengthAdjust="spacing" textLength="164.6709" x="355.5283" y="602.2842">Analyze Syntax System</text><rect fill="#E2E2F0" height="30.2969" rx="2.5" ry="2.5" style="stroke:#181818;stroke-width:0.5;" width="172.6279" x="537.1992" y="50"/><text fill="#000000" font-family="sans-serif" font-size="14" lengthAdjust="spacing" textLength="158.6279" x="544.1992" y="69.9951">Moderate Text System</text><rect fill="#E2E2F0" height="30.2969" rx="2.5" ry="2.5" style="stroke:#181818;stroke-width:0.5;" width="172.6279" x="537.1992" y="582.2891"/><text fill="#000000" font-family="sans-serif" font-size="14" lengthAdjust="spacing" textLength="158.6279" x="544.1992" y="602.2842">Moderate Text System</text><polygon fill="#181818" points="234.7959,108.4297,244.7959,112.4297,234.7959,116.4297,238.7959,112.4297" style="stroke:#181818;stroke-width:1;"/><line style="stroke:#181818;stroke-width:1;" x1="38.9551" x2="240.7959" y1="112.4297" y2="112.4297"/><text fill="#000000" font-family="sans-serif" font-size="13" lengthAdjust="spacing" textLength="183.8408" x="45.9551" y="107.3638">generate random sentences</text><polygon fill="#181818" points="425.8638,137.5625,435.8638,141.5625,425.8638,145.5625,429.8638,141.5625" style="stroke:#181818;stroke-width:1;"/><line style="stroke:#181818;stroke-width:1;" x1="246.7959" x2="431.8638" y1="141.5625" y2="141.5625"/><text fill="#000000" font-family="sans-serif" font-size="13" lengthAdjust="spacing" textLength="153.8481" x="253.7959" y="136.4966">analyze given sentence</text><polygon fill="#181818" points="257.7959,166.6953,247.7959,170.6953,257.7959,174.6953,253.7959,170.6953" style="stroke:#181818;stroke-width:1;"/><line style="stroke:#181818;stroke-width:1;" x1="251.7959" x2="436.8638" y1="170.6953" y2="170.6953"/><text fill="#000000" font-family="sans-serif" font-size="13" lengthAdjust="spacing" textLength="124.7378" x="263.7959" y="165.6294">send syntactic tree</text><path d="M10,185.6953 L79.4512,185.6953 L79.4512,192.8281 L69.4512,202.8281 L10,202.8281 L10,185.6953 " fill="#EEEEEE" style="stroke:#000000;stroke-width:1.5;"/><rect fill="transparent" height="46.2656" style="stroke:#000000;stroke-width:1.5;" width="279.8989" x="10" y="185.6953"/><text fill="#000000" font-family="sans-serif" font-size="13" font-weight="bold" lengthAdjust="spacing" textLength="24.4512" x="25" y="198.7622">opt</text><text fill="#000000" font-family="sans-serif" font-size="11" font-weight="bold" lengthAdjust="spacing" textLength="137.7632" x="94.4512" y="197.9058">[syntax tree required]</text><polygon fill="#181818" points="49.9551,219.9609,39.9551,223.9609,49.9551,227.9609,45.9551,223.9609" style="stroke:#181818;stroke-width:1;"/><line style="stroke:#181818;stroke-width:1;" x1="43.9551" x2="245.7959" y1="223.9609" y2="223.9609"/><text fill="#000000" font-family="sans-serif" font-size="13" lengthAdjust="spacing" textLength="109.4272" x="55.9551" y="218.895">send syntax tree</text><line style="stroke:#181818;stroke-width:1;" x1="246.7959" x2="288.7959" y1="260.0938" y2="260.0938"/><line style="stroke:#181818;stroke-width:1;" x1="288.7959" x2="288.7959" y1="260.0938" y2="273.0938"/><line style="stroke:#181818;stroke-width:1;" x1="247.7959" x2="288.7959" y1="273.0938" y2="273.0938"/><polygon fill="#181818" points="257.7959,269.0938,247.7959,273.0938,257.7959,277.0938,253.7959,273.0938" style="stroke:#181818;stroke-width:1;"/><text fill="#000000" font-family="sans-serif" font-size="13" lengthAdjust="spacing" textLength="114.8545" x="253.7959" y="255.0278">update dictionary</text><path d="M193.6929,288.0938 L270.3169,288.0938 L270.3169,295.2266 L260.3169,305.2266 L193.6929,305.2266 L193.6929,288.0938 " fill="#EEEEEE" style="stroke:#000000;stroke-width:1.5;"/><rect fill="transparent" height="190.7969" style="stroke:#000000;stroke-width:1.5;" width="536.1343" x="193.6929" y="288.0938"/><text fill="#000000" font-family="sans-serif" font-size="13" font-weight="bold" lengthAdjust="spacing" textLength="31.624" x="208.6929" y="301.1606">loop</text><text fill="#000000" font-family="sans-serif" font-size="11" font-weight="bold" lengthAdjust="spacing" textLength="277.0571" x="285.3169" y="300.3042">[for given number of sentences to generate]</text><path d="M203.6929,312.2266 L280.3169,312.2266 L280.3169,319.3594 L270.3169,329.3594 L203.6929,329.3594 L203.6929,312.2266 " fill="#EEEEEE" style="stroke:#000000;stroke-width:1.5;"/><rect fill="transparent" height="117.5313" style="stroke:#000000;stroke-width:1.5;" width="516.1343" x="203.6929" y="312.2266"/><text fill="#000000" font-family="sans-serif" font-size="13" font-weight="bold" lengthAdjust="spacing" textLength="31.624" x="218.6929" y="325.2935">loop</text><text fill="#000000" font-family="sans-serif" font-size="11" font-weight="bold" lengthAdjust="spacing" textLength="161.5625" x="295.3169" y="324.437">[while sentence not valid]</text><line style="stroke:#181818;stroke-width:1;" x1="246.7959" x2="288.7959" y1="350.4922" y2="350.4922"/><line style="stroke:#181818;stroke-width:1;" x1="288.7959" x2="288.7959" y1="350.4922" y2="363.4922"/><line style="stroke:#181818;stroke-width:1;" x1="247.7959" x2="288.7959" y1="363.4922" y2="363.4922"/><polygon fill="#181818" points="257.7959,359.4922,247.7959,363.4922,257.7959,367.4922,253.7959,363.4922" style="stroke:#181818;stroke-width:1;"/><text fill="#000000" font-family="sans-serif" font-size="13" lengthAdjust="spacing" textLength="177.0679" x="253.7959" y="345.4263">generate random sentence</text><polygon fill="#181818" points="611.5132,388.625,621.5132,392.625,611.5132,396.625,615.5132,392.625" style="stroke:#181818;stroke-width:1;"/><line style="stroke:#181818;stroke-width:1;" x1="246.7959" x2="617.5132" y1="392.625" y2="392.625"/><text fill="#000000" font-family="sans-serif" font-size="13" lengthAdjust="spacing" textLength="170.3711" x="253.7959" y="387.5591">validate random sentence</text><polygon fill="#181818" points="257.7959,417.7578,247.7959,421.7578,257.7959,425.7578,253.7959,421.7578" style="stroke:#181818;stroke-width:1;"/><line style="stroke:#181818;stroke-width:1;" x1="251.7959" x2="622.5132" y1="421.7578" y2="421.7578"/><text fill="#000000" font-family="sans-serif" font-size="13" lengthAdjust="spacing" textLength="140.5942" x="263.7959" y="416.6919">send validation result</text><line style="stroke:#181818;stroke-width:1;" x1="246.7959" x2="288.7959" y1="457.8906" y2="457.8906"/><line style="stroke:#181818;stroke-width:1;" x1="288.7959" x2="288.7959" y1="457.8906" y2="470.8906"/><line style="stroke:#181818;stroke-width:1;" x1="247.7959" x2="288.7959" y1="470.8906" y2="470.8906"/><polygon fill="#181818" points="257.7959,466.8906,247.7959,470.8906,257.7959,474.8906,253.7959,470.8906" style="stroke:#181818;stroke-width:1;"/><text fill="#000000" font-family="sans-serif" font-size="13" lengthAdjust="spacing" textLength="94.6499" x="253.7959" y="452.8247">update history</text><polygon fill="#181818" points="49.9551,503.0234,39.9551,507.0234,49.9551,511.0234,45.9551,507.0234" style="stroke:#181818;stroke-width:1;"/><line style="stroke:#181818;stroke-width:1;" x1="43.9551" x2="245.7959" y1="507.0234" y2="507.0234"/><text fill="#000000" font-family="sans-serif" font-size="13" lengthAdjust="spacing" textLength="156.2095" x="55.9551" y="501.9575">send random sentences</text><polygon fill="#181818" points="234.7959,532.1563,244.7959,536.1563,234.7959,540.1563,238.7959,536.1563" style="stroke:#181818;stroke-width:1;"/><line style="stroke:#181818;stroke-width:1;" x1="38.9551" x2="240.7959" y1="536.1563" y2="536.1563"/><text fill="#000000" font-family="sans-serif" font-size="13" lengthAdjust="spacing" textLength="142.4033" x="45.9551" y="531.0903">view sentence history</text><polygon fill="#181818" points="49.9551,561.2891,39.9551,565.2891,49.9551,569.2891,45.9551,565.2891" style="stroke:#181818;stroke-width:1;"/><line style="stroke:#181818;stroke-width:1;" x1="43.9551" x2="245.7959" y1="565.2891" y2="565.2891"/><text fill="#000000" font-family="sans-serif" font-size="13" lengthAdjust="spacing" textLength="143.73" x="55.9551" y="560.2231">send sentence history</text><!--SRC=[VP9DSiCW38Ntd4AJVIxWwNIc1-YgxG6eKH9ciA0WEtPFNs6euxHsTlnyxmazf5ls4JuIHXLqPDlQe8dXRKgCtTtHuOMqcxvHxeZrM973FVFg3KRD2EyuyeAex0_7vte03PoH2XSr6Tz1GcAa5fEgYC0x1KMjwyNP3aYBLkq9ibTTDvasa3BGohE18wBoWSlHEEyXubTl8vhLOt87Qt4XbUnNK5arq0UJUpDMIdZISLBE-m0dIReycVhkKnBnfrlZm7v9fU3NYtMu042UOT3ERXNSYtETvkRNDCNoWVJfk2kTqwXwwLDYIxtZnvbSR9A1csPedWhnNwPYDlmt4HlZCrYytfBvzTps-ulz0000]--></g></svg>