<svg xmlns="http://www.w3.org/2000/svg" xmlns:xlink="http://www.w3.org/1999/xlink" contentStyleType="text/css" data-diagram-type="SEQUENCE" height="341px" preserveAspectRatio="none" style="width:423px;height:341px;background:#FFFFFF;" version="1.1" viewBox="0 0 423 341" width="423px" zoomAndPan="magnify"><defs/><g><rect fill="transparent" height="59.2656" style="stroke:#000000;stroke-width:1.5;" width="223.1616" x="194.1196" y="156.5625"/><g><title>User</title><rect fill="transparent" height="179.5313" width="8" x="19.9551" y="81.2969"/><line style="stroke:#181818;stroke-width:0.5;stroke-dasharray:5.0,5.0;" x1="23" x2="23" y1="81.2969" y2="260.8281"/></g><g><title>Controller</title><rect fill="transparent" height="179.5313" width="8" x="130.2832" y="81.2969"/><line style="stroke:#181818;stroke-width:0.5;stroke-dasharray:5.0,5.0;" x1="133.6968" x2="133.6968" y1="81.2969" y2="260.8281"/></g><g><title>History</title><rect fill="transparent" height="179.5313" width="8" x="232.0229" y="81.2969"/><line style="stroke:#181818;stroke-width:0.5;stroke-dasharray:5.0,5.0;" x1="235.1196" x2="235.1196" y1="81.2969" y2="260.8281"/></g><text fill="#000000" font-family="sans-serif" font-size="14" lengthAdjust="spacing" textLength="31.9102" x="5" y="77.9951">User</text><ellipse cx="23.9551" cy="13.5" fill="#E2E2F0" rx="8" ry="8" style="stroke:#181818;stroke-width:0.5;"/><path d="M23.9551,21.5 L23.9551,48.5 M10.9551,29.5 L36.9551,29.5 M23.9551,48.5 L10.9551,63.5 M23.9551,48.5 L36.9551,63.5 " fill="transparent" style="stroke:#181818;stroke-width:0.5;"/><text fill="#000000" font-family="sans-serif" font-size="14" lengthAdjust="spacing" textLength="31.9102" x="5" y="272.8232">User</text><ellipse cx="23.9551" cy="284.625" fill="#E2E2F0" rx="8" ry="8" style="stroke:#181818;stroke-width:0.5;"/><path d="M23.9551,292.625 L23.9551,319.625 M10.9551,300.625 L36.9551,300.625 M23.9551,319.625 L10.9551,334.625 M23.9551,319.625 L36.9551,334.625 " fill="transparent" style="stroke:#181818;stroke-width:0.5;"/><rect fill="#E2E2F0" height="30.2969" rx="2.5" ry="2.5" style="stroke:#181818;stroke-width:0.5;" width="83.1729" x="92.6968" y="50"/><text fill="#000000" font-family="sans-serif" font-size="14" lengthAdjust="spacing" textLength="69.1729" x="99.6968" y="69.9951">Controller</text><rect fill="#E2E2F0" height="30.2969" rx="2.5" ry="2.5" style="stroke:#181818;stroke-width:0.5;" width="83.1729" x="92.6968" y="259.8281"/><text fill="#000000" font-family="sans-serif" font-size="14" lengthAdjust="spacing" textLength="69.1729" x="99.6968" y="279.8232">Controller</text><rect fill="#E2E2F0" height="30.2969" rx="2.5" ry="2.5" style="stroke:#181818;stroke-width:0.5;" width="63.8066" x="204.1196" y="50"/><text fill="#000000" font-family="sans-serif" font-size="14" lengthAdjust="spacing" textLength="49.8066" x="211.1196" y="69.9951">History</text><rect fill="#E2E2F0" height="30.2969" rx="2.5" ry="2.5" style="stroke:#181818;stroke-width:0.5;" width="63.8066" x="204.1196" y="259.8281"/><text fill="#000000" font-family="sans-serif" font-size="14" lengthAdjust="spacing" textLength="49.8066" x="211.1196" y="279.8232">History</text><polygon fill="#181818" points="122.2832,108.4297,132.2832,112.4297,122.2832,116.4297,126.2832,112.4297" style="stroke:#181818;stroke-width:1;"/><line style="stroke:#181818;stroke-width:1;" x1="23.9551" x2="128.2832" y1="112.4297" y2="112.4297"/><text fill="#000000" font-family="sans-serif" font-size="13" lengthAdjust="spacing" textLength="86.3281" x="30.9551" y="107.3638">viewHistory()</text><polygon fill="#181818" points="224.0229,137.5625,234.0229,141.5625,224.0229,145.5625,228.0229,141.5625" style="stroke:#181818;stroke-width:1;"/><line style="stroke:#181818;stroke-width:1;" x1="134.2832" x2="230.0229" y1="141.5625" y2="141.5625"/><text fill="#000000" font-family="sans-serif" font-size="13" lengthAdjust="spacing" textLength="77.7397" x="141.2832" y="136.4966">getHistory()</text><path d="M194.1196,156.5625 L270.7437,156.5625 L270.7437,163.6953 L260.7437,173.6953 L194.1196,173.6953 L194.1196,156.5625 " fill="#EEEEEE" style="stroke:#000000;stroke-width:1.5;"/><rect fill="transparent" height="59.2656" style="stroke:#000000;stroke-width:1.5;" width="223.1616" x="194.1196" y="156.5625"/><text fill="#000000" font-family="sans-serif" font-size="13" font-weight="bold" lengthAdjust="spacing" textLength="31.624" x="209.1196" y="169.6294">loop</text><text fill="#000000" font-family="sans-serif" font-size="11" font-weight="bold" lengthAdjust="spacing" textLength="126.5376" x="285.7437" y="168.7729">[for every sentence]</text><line style="stroke:#181818;stroke-width:1;" x1="236.0229" x2="278.0229" y1="194.8281" y2="194.8281"/><line style="stroke:#181818;stroke-width:1;" x1="278.0229" x2="278.0229" y1="194.8281" y2="207.8281"/><line style="stroke:#181818;stroke-width:1;" x1="237.0229" x2="278.0229" y1="207.8281" y2="207.8281"/><polygon fill="#181818" points="247.0229,203.8281,237.0229,207.8281,247.0229,211.8281,243.0229,207.8281" style="stroke:#181818;stroke-width:1;"/><text fill="#000000" font-family="sans-serif" font-size="13" lengthAdjust="spacing" textLength="31.4907" x="243.0229" y="189.7622">get()</text><polygon fill="#181818" points="145.2832,224.8281,135.2832,228.8281,145.2832,232.8281,141.2832,228.8281" style="stroke:#181818;stroke-width:1;"/><line style="stroke:#181818;stroke-width:1;stroke-dasharray:2.0,2.0;" x1="139.2832" x2="235.0229" y1="228.8281" y2="228.8281"/><polygon fill="#181818" points="34.9551,238.8281,24.9551,242.8281,34.9551,246.8281,30.9551,242.8281" style="stroke:#181818;stroke-width:1;"/><line style="stroke:#181818;stroke-width:1;stroke-dasharray:2.0,2.0;" x1="28.9551" x2="133.2832" y1="242.8281" y2="242.8281"/><!--SRC=[NOwx3SCm34HxJi7IBhA02pTfia0641Gw422G0aKuyFQc07zYixpt3hmGJHJVbHHAK4inbS26Js5JoVaMlr9rVG6_Li77-6SEE2VwRKhNmqcQj-K3VibE9uiKd7m1pQGBLc8ZZWIu-_UgTuW_SD3BWijB9stZ2W00]--></g></svg>