<svg xmlns="http://www.w3.org/2000/svg" xmlns:xlink="http://www.w3.org/1999/xlink" contentStyleType="text/css" height="931px" preserveAspectRatio="none" style="width:1562px;height:931px;background:#FFFFFF;" version="1.1" viewBox="0 0 1562 931" width="1562px" zoomAndPan="magnify"><defs/><g><rect fill="#FFFFFF" height="719.9922" style="stroke:#181818;stroke-width:1.0;" width="10" x="325" y="112.4297"/><rect fill="#FFFFFF" height="661.7266" style="stroke:#181818;stroke-width:1.0;" width="10" x="687" y="141.5625"/><rect fill="#FFFFFF" height="29.1328" style="stroke:#181818;stroke-width:1.0;" width="10" x="948" y="170.6953"/><rect fill="#FFFFFF" height="29.1328" style="stroke:#181818;stroke-width:1.0;" width="10" x="948" y="311.3594"/><rect fill="#FFFFFF" height="29.1328" style="stroke:#181818;stroke-width:1.0;" width="10" x="948" y="549.2266"/><rect fill="#FFFFFF" height="29.1328" style="stroke:#181818;stroke-width:1.0;" width="10" x="1095" y="253.0938"/><rect fill="#FFFFFF" height="29.1328" style="stroke:#181818;stroke-width:1.0;" width="10" x="1095" y="490.9609"/><rect fill="#FFFFFF" height="29.1328" style="stroke:#181818;stroke-width:1.0;" width="10" x="1211" y="686.7578"/><rect fill="#FFFFFF" height="29.1328" style="stroke:#181818;stroke-width:1.0;" width="10" x="1329" y="393.7578"/><rect fill="#FFFFFF" height="29.1328" style="stroke:#181818;stroke-width:1.0;" width="10" x="1329" y="614.4922"/><rect fill="#FFFFFF" height="29.1328" style="stroke:#181818;stroke-width:1.0;" width="10" x="1484" y="745.0234"/><rect fill="none" height="443.7969" style="stroke:#000000;stroke-width:1.5;" width="801.5" x="630" y="214.8281"/><rect fill="none" height="296.1328" style="stroke:#000000;stroke-width:1.5;" width="781.5" x="640" y="355.4922"/><rect fill="none" height="133.6641" style="stroke:#000000;stroke-width:1.5;" width="535.5" x="650" y="452.6953"/><line style="stroke:#181818;stroke-width:0.5;stroke-dasharray:5.0,5.0;" x1="24" x2="24" y1="81.2969" y2="850.4219"/><line style="stroke:#181818;stroke-width:0.5;stroke-dasharray:5.0,5.0;" x1="329.5" x2="329.5" y1="81.2969" y2="850.4219"/><line style="stroke:#181818;stroke-width:0.5;stroke-dasharray:5.0,5.0;" x1="692" x2="692" y1="81.2969" y2="850.4219"/><line style="stroke:#181818;stroke-width:0.5;stroke-dasharray:5.0,5.0;" x1="952.5" x2="952.5" y1="81.2969" y2="850.4219"/><line style="stroke:#181818;stroke-width:0.5;stroke-dasharray:5.0,5.0;" x1="1099.5" x2="1099.5" y1="81.2969" y2="850.4219"/><line style="stroke:#181818;stroke-width:0.5;stroke-dasharray:5.0,5.0;" x1="1215.5" x2="1215.5" y1="81.2969" y2="850.4219"/><line style="stroke:#181818;stroke-width:0.5;stroke-dasharray:5.0,5.0;" x1="1333.5" x2="1333.5" y1="81.2969" y2="850.4219"/><line style="stroke:#181818;stroke-width:0.5;stroke-dasharray:5.0,5.0;" x1="1488.5" x2="1488.5" y1="81.2969" y2="850.4219"/><text fill="#000000" font-family="sans-serif" font-size="14" lengthAdjust="spacing" textLength="32" x="5" y="77.9951">User</text><ellipse cx="24" cy="13.5" fill="#E2E2F0" rx="8" ry="8" style="stroke:#181818;stroke-width:0.5;"/><path d="M24,21.5 L24,48.5 M11,29.5 L37,29.5 M24,48.5 L11,63.5 M24,48.5 L37,63.5 " fill="none" style="stroke:#181818;stroke-width:0.5;"/><text fill="#000000" font-family="sans-serif" font-size="14" lengthAdjust="spacing" textLength="32" x="5" y="862.417">User</text><ellipse cx="24" cy="874.2188" fill="#E2E2F0" rx="8" ry="8" style="stroke:#181818;stroke-width:0.5;"/><path d="M24,882.2188 L24,909.2188 M11,890.2188 L37,890.2188 M24,909.2188 L11,924.2188 M24,909.2188 L37,924.2188 " fill="none" style="stroke:#181818;stroke-width:0.5;"/><rect fill="#E2E2F0" height="30.2969" rx="2.5" ry="2.5" style="stroke:#181818;stroke-width:0.5;" width="81" x="289.5" y="50"/><text fill="#000000" font-family="sans-serif" font-size="14" lengthAdjust="spacing" textLength="67" x="296.5" y="69.9951">Controller</text><rect fill="#E2E2F0" height="30.2969" rx="2.5" ry="2.5" style="stroke:#181818;stroke-width:0.5;" width="81" x="289.5" y="849.4219"/><text fill="#000000" font-family="sans-serif" font-size="14" lengthAdjust="spacing" textLength="67" x="296.5" y="869.417">Controller</text><rect fill="#E2E2F0" height="30.2969" rx="2.5" ry="2.5" style="stroke:#181818;stroke-width:0.5;" width="64" x="660" y="50"/><text fill="#000000" font-family="sans-serif" font-size="14" lengthAdjust="spacing" textLength="50" x="667" y="69.9951">Service</text><rect fill="#E2E2F0" height="30.2969" rx="2.5" ry="2.5" style="stroke:#181818;stroke-width:0.5;" width="64" x="660" y="849.4219"/><text fill="#000000" font-family="sans-serif" font-size="14" lengthAdjust="spacing" textLength="50" x="667" y="869.417">Service</text><rect fill="#E2E2F0" height="30.2969" rx="2.5" ry="2.5" style="stroke:#181818;stroke-width:0.5;" width="123" x="891.5" y="50"/><text fill="#000000" font-family="sans-serif" font-size="14" lengthAdjust="spacing" textLength="109" x="898.5" y="69.9951">GoogleAPICaller</text><rect fill="#E2E2F0" height="30.2969" rx="2.5" ry="2.5" style="stroke:#181818;stroke-width:0.5;" width="123" x="891.5" y="849.4219"/><text fill="#000000" font-family="sans-serif" font-size="14" lengthAdjust="spacing" textLength="109" x="898.5" y="869.417">GoogleAPICaller</text><rect fill="#E2E2F0" height="30.2969" rx="2.5" ry="2.5" style="stroke:#181818;stroke-width:0.5;" width="151" x="1024.5" y="50"/><text fill="#000000" font-family="sans-serif" font-size="14" lengthAdjust="spacing" textLength="137" x="1031.5" y="69.9951">SentenceGenerator</text><rect fill="#E2E2F0" height="30.2969" rx="2.5" ry="2.5" style="stroke:#181818;stroke-width:0.5;" width="151" x="1024.5" y="849.4219"/><text fill="#000000" font-family="sans-serif" font-size="14" lengthAdjust="spacing" textLength="137" x="1031.5" y="869.417">SentenceGenerator</text><rect fill="#E2E2F0" height="30.2969" rx="2.5" ry="2.5" style="stroke:#181818;stroke-width:0.5;" width="61" x="1185.5" y="50"/><text fill="#000000" font-family="sans-serif" font-size="14" lengthAdjust="spacing" textLength="47" x="1192.5" y="69.9951">History</text><rect fill="#E2E2F0" height="30.2969" rx="2.5" ry="2.5" style="stroke:#181818;stroke-width:0.5;" width="61" x="1185.5" y="849.4219"/><text fill="#000000" font-family="sans-serif" font-size="14" lengthAdjust="spacing" textLength="47" x="1192.5" y="869.417">History</text><rect fill="#E2E2F0" height="30.2969" rx="2.5" ry="2.5" style="stroke:#181818;stroke-width:0.5;" width="155" x="1256.5" y="50"/><text fill="#000000" font-family="sans-serif" font-size="14" lengthAdjust="spacing" textLength="141" x="1263.5" y="69.9951">GeneratedSentence</text><rect fill="#E2E2F0" height="30.2969" rx="2.5" ry="2.5" style="stroke:#181818;stroke-width:0.5;" width="155" x="1256.5" y="849.4219"/><text fill="#000000" font-family="sans-serif" font-size="14" lengthAdjust="spacing" textLength="141" x="1263.5" y="869.417">GeneratedSentence</text><rect fill="#E2E2F0" height="30.2969" rx="2.5" ry="2.5" style="stroke:#181818;stroke-width:0.5;" width="135" x="1421.5" y="50"/><text fill="#000000" font-family="sans-serif" font-size="14" lengthAdjust="spacing" textLength="121" x="1428.5" y="69.9951">GenerationResult</text><rect fill="#E2E2F0" height="30.2969" rx="2.5" ry="2.5" style="stroke:#181818;stroke-width:0.5;" width="135" x="1421.5" y="849.4219"/><text fill="#000000" font-family="sans-serif" font-size="14" lengthAdjust="spacing" textLength="121" x="1428.5" y="869.417">GenerationResult</text><rect fill="#FFFFFF" height="719.9922" style="stroke:#181818;stroke-width:1.0;" width="10" x="325" y="112.4297"/><rect fill="#FFFFFF" height="661.7266" style="stroke:#181818;stroke-width:1.0;" width="10" x="687" y="141.5625"/><rect fill="#FFFFFF" height="29.1328" style="stroke:#181818;stroke-width:1.0;" width="10" x="948" y="170.6953"/><rect fill="#FFFFFF" height="29.1328" style="stroke:#181818;stroke-width:1.0;" width="10" x="948" y="311.3594"/><rect fill="#FFFFFF" height="29.1328" style="stroke:#181818;stroke-width:1.0;" width="10" x="948" y="549.2266"/><rect fill="#FFFFFF" height="29.1328" style="stroke:#181818;stroke-width:1.0;" width="10" x="1095" y="253.0938"/><rect fill="#FFFFFF" height="29.1328" style="stroke:#181818;stroke-width:1.0;" width="10" x="1095" y="490.9609"/><rect fill="#FFFFFF" height="29.1328" style="stroke:#181818;stroke-width:1.0;" width="10" x="1211" y="686.7578"/><rect fill="#FFFFFF" height="29.1328" style="stroke:#181818;stroke-width:1.0;" width="10" x="1329" y="393.7578"/><rect fill="#FFFFFF" height="29.1328" style="stroke:#181818;stroke-width:1.0;" width="10" x="1329" y="614.4922"/><rect fill="#FFFFFF" height="29.1328" style="stroke:#181818;stroke-width:1.0;" width="10" x="1484" y="745.0234"/><polygon fill="#181818" points="313,108.4297,323,112.4297,313,116.4297,317,112.4297" style="stroke:#181818;stroke-width:1.0;"/><line style="stroke:#181818;stroke-width:1.0;" x1="24" x2="319" y1="112.4297" y2="112.4297"/><text fill="#000000" font-family="sans-serif" font-size="13" lengthAdjust="spacing" textLength="282" x="31" y="107.3638">generate(input, addToDict, count, template)</text><polygon fill="#181818" points="675,137.5625,685,141.5625,675,145.5625,679,141.5625" style="stroke:#181818;stroke-width:1.0;"/><line style="stroke:#181818;stroke-width:1.0;" x1="335" x2="681" y1="141.5625" y2="141.5625"/><text fill="#000000" font-family="sans-serif" font-size="13" lengthAdjust="spacing" textLength="333" x="342" y="136.4966">generatePhrases(input, addToDict, count, template)</text><polygon fill="#181818" points="936,166.6953,946,170.6953,936,174.6953,940,170.6953" style="stroke:#181818;stroke-width:1.0;"/><line style="stroke:#181818;stroke-width:1.0;" x1="697" x2="942" y1="170.6953" y2="170.6953"/><text fill="#000000" font-family="sans-serif" font-size="13" lengthAdjust="spacing" textLength="123" x="704" y="165.6294">getStructure(input)</text><polygon fill="#181818" points="708,195.8281,698,199.8281,708,203.8281,704,199.8281" style="stroke:#181818;stroke-width:1.0;"/><line style="stroke:#181818;stroke-width:1.0;stroke-dasharray:2.0,2.0;" x1="702" x2="952" y1="199.8281" y2="199.8281"/><text fill="#000000" font-family="sans-serif" font-size="13" lengthAdjust="spacing" textLength="121" x="714" y="194.7622">SentenceStructure</text><path d="M630,214.8281 L707,214.8281 L707,221.9609 L697,231.9609 L630,231.9609 L630,214.8281 " fill="#EEEEEE" style="stroke:#000000;stroke-width:1.5;"/><rect fill="none" height="443.7969" style="stroke:#000000;stroke-width:1.5;" width="801.5" x="630" y="214.8281"/><text fill="#000000" font-family="sans-serif" font-size="13" font-weight="bold" lengthAdjust="spacing" textLength="32" x="645" y="227.895">loop</text><text fill="#000000" font-family="sans-serif" font-size="11" font-weight="bold" lengthAdjust="spacing" textLength="82" x="722" y="227.0386">[count volte]</text><polygon fill="#181818" points="1083,249.0938,1093,253.0938,1083,257.0938,1087,253.0938" style="stroke:#181818;stroke-width:1.0;"/><line style="stroke:#181818;stroke-width:1.0;" x1="697" x2="1089" y1="253.0938" y2="253.0938"/><text fill="#000000" font-family="sans-serif" font-size="13" lengthAdjust="spacing" textLength="308" x="704" y="248.0278">generatePhrase(structure, addToDict, template)</text><polygon fill="#181818" points="708,278.2266,698,282.2266,708,286.2266,704,282.2266" style="stroke:#181818;stroke-width:1.0;"/><line style="stroke:#181818;stroke-width:1.0;stroke-dasharray:2.0,2.0;" x1="702" x2="1099" y1="282.2266" y2="282.2266"/><text fill="#000000" font-family="sans-serif" font-size="13" lengthAdjust="spacing" textLength="86" x="714" y="277.1606">String phrase</text><polygon fill="#181818" points="936,307.3594,946,311.3594,936,315.3594,940,311.3594" style="stroke:#181818;stroke-width:1.0;"/><line style="stroke:#181818;stroke-width:1.0;" x1="697" x2="942" y1="311.3594" y2="311.3594"/><text fill="#000000" font-family="sans-serif" font-size="13" lengthAdjust="spacing" textLength="216" x="704" y="306.2935">getModerationCategories(phrase)</text><polygon fill="#181818" points="708,336.4922,698,340.4922,708,344.4922,704,340.4922" style="stroke:#181818;stroke-width:1.0;"/><line style="stroke:#181818;stroke-width:1.0;stroke-dasharray:2.0,2.0;" x1="702" x2="952" y1="340.4922" y2="340.4922"/><text fill="#000000" font-family="sans-serif" font-size="13" lengthAdjust="spacing" textLength="227" x="714" y="335.4263">List&lt;PhraseClassificationAttribute&gt;</text><path d="M640,355.4922 L704,355.4922 L704,362.625 L694,372.625 L640,372.625 L640,355.4922 " fill="#EEEEEE" style="stroke:#000000;stroke-width:1.5;"/><rect fill="none" height="296.1328" style="stroke:#000000;stroke-width:1.5;" width="781.5" x="640" y="355.4922"/><text fill="#000000" font-family="sans-serif" font-size="13" font-weight="bold" lengthAdjust="spacing" textLength="19" x="655" y="368.5591">alt</text><text fill="#000000" font-family="sans-serif" font-size="11" font-weight="bold" lengthAdjust="spacing" textLength="86" x="719" y="367.7026">[frase valida]</text><polygon fill="#181818" points="1317,389.7578,1327,393.7578,1317,397.7578,1321,393.7578" style="stroke:#181818;stroke-width:1.0;"/><line style="stroke:#181818;stroke-width:1.0;" x1="697" x2="1323" y1="393.7578" y2="393.7578"/><text fill="#000000" font-family="sans-serif" font-size="13" lengthAdjust="spacing" textLength="287" x="704" y="388.6919">new GeneratedSentence(phrase, categories)</text><polygon fill="#181818" points="708,418.8906,698,422.8906,708,426.8906,704,422.8906" style="stroke:#181818;stroke-width:1.0;"/><line style="stroke:#181818;stroke-width:1.0;stroke-dasharray:2.0,2.0;" x1="702" x2="1333" y1="422.8906" y2="422.8906"/><text fill="#000000" font-family="sans-serif" font-size="13" lengthAdjust="spacing" textLength="129" x="714" y="417.8247">GeneratedSentence</text><line style="stroke:#000000;stroke-width:1.0;stroke-dasharray:2.0,2.0;" x1="640" x2="1421.5" y1="431.8906" y2="431.8906"/><text fill="#000000" font-family="sans-serif" font-size="11" font-weight="bold" lengthAdjust="spacing" textLength="286" x="645" y="442.1011">[frase NON valida (tentativi &lt; maxAttempts)]</text><path d="M650,452.6953 L727,452.6953 L727,459.8281 L717,469.8281 L650,469.8281 L650,452.6953 " fill="#EEEEEE" style="stroke:#000000;stroke-width:1.5;"/><rect fill="none" height="133.6641" style="stroke:#000000;stroke-width:1.5;" width="535.5" x="650" y="452.6953"/><text fill="#000000" font-family="sans-serif" font-size="13" font-weight="bold" lengthAdjust="spacing" textLength="32" x="665" y="465.7622">loop</text><text fill="#000000" font-family="sans-serif" font-size="11" font-weight="bold" lengthAdjust="spacing" textLength="168" x="742" y="464.9058">[retry fino a maxAttempts]</text><polygon fill="#181818" points="1083,486.9609,1093,490.9609,1083,494.9609,1087,490.9609" style="stroke:#181818;stroke-width:1.0;"/><line style="stroke:#181818;stroke-width:1.0;" x1="697" x2="1089" y1="490.9609" y2="490.9609"/><text fill="#000000" font-family="sans-serif" font-size="13" lengthAdjust="spacing" textLength="124" x="704" y="485.895">generatePhrase(...)</text><polygon fill="#181818" points="708,516.0938,698,520.0938,708,524.0938,704,520.0938" style="stroke:#181818;stroke-width:1.0;"/><line style="stroke:#181818;stroke-width:1.0;stroke-dasharray:2.0,2.0;" x1="702" x2="1099" y1="520.0938" y2="520.0938"/><text fill="#000000" font-family="sans-serif" font-size="13" lengthAdjust="spacing" textLength="44" x="714" y="515.0278">phrase</text><polygon fill="#181818" points="936,545.2266,946,549.2266,936,553.2266,940,549.2266" style="stroke:#181818;stroke-width:1.0;"/><line style="stroke:#181818;stroke-width:1.0;" x1="697" x2="942" y1="549.2266" y2="549.2266"/><text fill="#000000" font-family="sans-serif" font-size="13" lengthAdjust="spacing" textLength="184" x="704" y="544.1606">getModerationCategories(...)</text><polygon fill="#181818" points="708,574.3594,698,578.3594,708,582.3594,704,578.3594" style="stroke:#181818;stroke-width:1.0;"/><line style="stroke:#181818;stroke-width:1.0;stroke-dasharray:2.0,2.0;" x1="702" x2="952" y1="578.3594" y2="578.3594"/><text fill="#000000" font-family="sans-serif" font-size="13" lengthAdjust="spacing" textLength="67" x="714" y="573.2935">categories</text><polygon fill="#181818" points="1317,610.4922,1327,614.4922,1317,618.4922,1321,614.4922" style="stroke:#181818;stroke-width:1.0;"/><line style="stroke:#181818;stroke-width:1.0;" x1="697" x2="1323" y1="614.4922" y2="614.4922"/><text fill="#000000" font-family="sans-serif" font-size="13" lengthAdjust="spacing" textLength="196" x="704" y="609.4263">new GeneratedSentence("", [])</text><polygon fill="#181818" points="708,639.625,698,643.625,708,647.625,704,643.625" style="stroke:#181818;stroke-width:1.0;"/><line style="stroke:#181818;stroke-width:1.0;stroke-dasharray:2.0,2.0;" x1="702" x2="1333" y1="643.625" y2="643.625"/><text fill="#000000" font-family="sans-serif" font-size="13" lengthAdjust="spacing" textLength="129" x="714" y="638.5591">GeneratedSentence</text><polygon fill="#181818" points="1199,682.7578,1209,686.7578,1199,690.7578,1203,686.7578" style="stroke:#181818;stroke-width:1.0;"/><line style="stroke:#181818;stroke-width:1.0;" x1="697" x2="1205" y1="686.7578" y2="686.7578"/><text fill="#000000" font-family="sans-serif" font-size="13" lengthAdjust="spacing" textLength="248" x="704" y="681.6919">push(ArrayList&lt;GeneratedSentence&gt;)</text><polygon fill="#181818" points="708,711.8906,698,715.8906,708,719.8906,704,715.8906" style="stroke:#181818;stroke-width:1.0;"/><line style="stroke:#181818;stroke-width:1.0;stroke-dasharray:2.0,2.0;" x1="702" x2="1215" y1="715.8906" y2="715.8906"/><text fill="#000000" font-family="sans-serif" font-size="13" lengthAdjust="spacing" textLength="26" x="714" y="710.8247">void</text><polygon fill="#181818" points="1472,741.0234,1482,745.0234,1472,749.0234,1476,745.0234" style="stroke:#181818;stroke-width:1.0;"/><line style="stroke:#181818;stroke-width:1.0;" x1="697" x2="1478" y1="745.0234" y2="745.0234"/><text fill="#000000" font-family="sans-serif" font-size="13" lengthAdjust="spacing" textLength="251" x="704" y="739.9575">new GenerationResult(result, structure)</text><polygon fill="#181818" points="708,770.1563,698,774.1563,708,778.1563,704,774.1563" style="stroke:#181818;stroke-width:1.0;"/><line style="stroke:#181818;stroke-width:1.0;stroke-dasharray:2.0,2.0;" x1="702" x2="1488" y1="774.1563" y2="774.1563"/><text fill="#000000" font-family="sans-serif" font-size="13" lengthAdjust="spacing" textLength="110" x="714" y="769.0903">GenerationResult</text><polygon fill="#181818" points="346,799.2891,336,803.2891,346,807.2891,342,803.2891" style="stroke:#181818;stroke-width:1.0;"/><line style="stroke:#181818;stroke-width:1.0;stroke-dasharray:2.0,2.0;" x1="340" x2="691" y1="803.2891" y2="803.2891"/><text fill="#000000" font-family="sans-serif" font-size="13" lengthAdjust="spacing" textLength="110" x="352" y="798.2231">GenerationResult</text><polygon fill="#181818" points="35,828.4219,25,832.4219,35,836.4219,31,832.4219" style="stroke:#181818;stroke-width:1.0;"/><line style="stroke:#181818;stroke-width:1.0;stroke-dasharray:2.0,2.0;" x1="29" x2="329" y1="832.4219" y2="832.4219"/><text fill="#000000" font-family="sans-serif" font-size="13" lengthAdjust="spacing" textLength="110" x="41" y="827.356">GenerationResult</text><!--SRC=[pLLDYzim4BtxLuWzEP3a1vGG22bi5xRRfTkUIW-ghMG5Mib8OxVvznt9bgoFEBJqKaEmhSoyUVFqhA4DA4s-6gQhZchW3U-e179K4hGI8bj-ONhW3KlMxfKw2tPuVZXI6q-e8VYIfKbWic7tJ39DRK4C2Yz9w0TkSEcILXWZMUjnhltBbVpCJ2-WgcmtPBEFcY3lo7a2gRdiUbWJshPVr7lUu6EZUeatO6-Tm8XLHHlW0px5CaHW23q94U4-lsfgcFahU2zdvU4G6RLpgF02kc-WrnFZACtAQyCs2H4lJiYhMfQaL4AfRcH31YM0LGIlgFIyFNbRjV6WIMTpInOf59jtrYxFg1bVq5oUIUSAkCY8xmoHampwV5JjjEz7p3WhpL7z4ItZOvkt2wLcZ-YstTZYKL1Z-8at3l80oEv73soVCtDAEdW1v6GpoK05RwbRlAxex5oiATdFSdqYZcO9lQm2OAvAz27aDNURpTMYovcbw5aG4zZYsEZJfwUfML9Z0A1K0oSxyaP_eM1e1eXOExTf1lf2JbmgGkEm4FNd5jnkjwiaRS5l_bhoNMIuPGsyyQvGl6t0PPRUXVugtJZl_HAx68F9zjyiTtUt9j- -_pSsmtRiBpuBfs5WDwqth_L1Qtfndsm1iO-EHpz2V7Ogyg1u6v-CFhegDGmZ9PKmBDVQtTOad8uHYs8i5Q0fhoA-L2mQSO5iFkPkmOHn4yyo173pydRgdF4R]--></g></svg>