<svg xmlns="http://www.w3.org/2000/svg" xmlns:xlink="http://www.w3.org/1999/xlink" contentStyleType="text/css" data-diagram-type="SEQUENCE" height="1356px" preserveAspectRatio="none" style="width:2030px;height:1356px;background:#FFFFFF;" version="1.1" viewBox="0 0 2030 1356" width="2030px" zoomAndPan="magnify"><defs/><g><g><title>Controller</title><rect fill="#FFFFFF" height="1145.7188" style="stroke:#181818;stroke-width:1;" width="10" x="331.8179" y="112.4297"/></g><g><title>SentenceTemplateGenerator</title><rect fill="#FFFFFF" height="29.1328" style="stroke:#181818;stroke-width:1;" width="10" x="491.9111" y="165.6953"/></g><g><title>Service</title><rect fill="#FFFFFF" height="998.0547" style="stroke:#181818;stroke-width:1;" width="10" x="700.6143" y="230.9609"/></g><g><title>GoogleAPICaller</title><rect fill="#FFFFFF" height="29.1328" style="stroke:#181818;stroke-width:1;" width="10" x="966.9321" y="260.0938"/></g><g><title>GoogleAPICaller</title><rect fill="#FFFFFF" height="29.1328" style="stroke:#181818;stroke-width:1;" width="10" x="966.9321" y="737.0859"/></g><g><title>GoogleAPICaller</title><rect fill="#FFFFFF" height="29.1328" style="stroke:#181818;stroke-width:1;" width="10" x="966.9321" y="974.9531"/></g><g><title>SentenceGenerator</title><rect fill="#FFFFFF" height="365.4609" style="stroke:#181818;stroke-width:1;" width="10" x="1115.3188" y="342.4922"/></g><g><title>SentenceGenerator</title><rect fill="#FFFFFF" height="113.3984" style="stroke:#181818;stroke-width:1;" width="10" x="1120.3188" y="558.4219"/></g><g><title>SentenceGenerator</title><rect fill="#FFFFFF" height="29.1328" style="stroke:#181818;stroke-width:1;" width="10" x="1115.3188" y="916.6875"/></g><g><title>Dictionary</title><rect fill="#FFFFFF" height="29.1328" style="stroke:#181818;stroke-width:1;" width="10" x="1592.7407" y="395.7578"/></g><g><title>Dictionary</title><rect fill="#FFFFFF" height="29.1328" style="stroke:#181818;stroke-width:1;" width="10" x="1592.7407" y="485.1563"/></g><g><title>History</title><rect fill="#FFFFFF" height="29.1328" style="stroke:#181818;stroke-width:1;" width="10" x="1677.5464" y="1112.4844"/></g><g><title>GeneratedSentence</title><rect fill="#FFFFFF" height="29.1328" style="stroke:#181818;stroke-width:1;" width="10" x="1796.4155" y="819.4844"/></g><g><title>GeneratedSentence</title><rect fill="#FFFFFF" height="29.1328" style="stroke:#181818;stroke-width:1;" width="10" x="1796.4155" y="1040.2188"/></g><g><title>GenerationResult</title><rect fill="#FFFFFF" height="29.1328" style="stroke:#181818;stroke-width:1;" width="10" x="1951.375" y="1170.75"/></g><rect fill="none" height="75.3984" style="stroke:#000000;stroke-width:1.5;" width="330.1865" x="285.2314" y="127.4297"/><rect fill="none" height="780.125" style="stroke:#000000;stroke-width:1.5;" width="1255.6377" x="642.7437" y="304.2266"/><rect fill="none" height="75.3984" style="stroke:#000000;stroke-width:1.5;" width="615.7007" x="1034.9424" y="357.4922"/><rect fill="none" height="75.3984" style="stroke:#000000;stroke-width:1.5;" width="615.7007" x="1034.9424" y="446.8906"/><rect fill="none" height="59.2656" style="stroke:#000000;stroke-width:1.5;" width="373.2944" x="1034.9424" y="578.4219"/><rect fill="none" height="296.1328" style="stroke:#000000;stroke-width:1.5;" width="1235.6377" x="652.7437" y="781.2188"/><rect fill="none" height="133.6641" style="stroke:#000000;stroke-width:1.5;" width="542.9517" x="662.7437" y="878.4219"/><g><title>User</title><rect fill="#000000" fill-opacity="0.00000" height="1194.8516" width="8" x="19.9551" y="81.2969"/><line style="stroke:#181818;stroke-width:0.5;stroke-dasharray:5.0,5.0;" x1="23" x2="23" y1="81.2969" y2="1276.1484"/></g><g><title>Controller</title><rect fill="#000000" fill-opacity="0.00000" height="1194.8516" width="8" x="332.8179" y="81.2969"/><line style="stroke:#181818;stroke-width:0.5;stroke-dasharray:5.0,5.0;" x1="336.2314" x2="336.2314" y1="81.2969" y2="1276.1484"/></g><g><title>SentenceTemplateGenerator</title><rect fill="#000000" fill-opacity="0.00000" height="1194.8516" width="8" x="492.9111" y="81.2969"/><line style="stroke:#181818;stroke-width:0.5;stroke-dasharray:5.0,5.0;" x1="496.4043" x2="496.4043" y1="81.2969" y2="1276.1484"/></g><g><title>Service</title><rect fill="#000000" fill-opacity="0.00000" height="1194.8516" width="8" x="701.6143" y="81.2969"/><line style="stroke:#181818;stroke-width:0.5;stroke-dasharray:5.0,5.0;" x1="704.7437" x2="704.7437" y1="81.2969" y2="1276.1484"/></g><g><title>GoogleAPICaller</title><rect fill="#000000" fill-opacity="0.00000" height="1194.8516" width="8" x="967.9321" y="81.2969"/><line style="stroke:#181818;stroke-width:0.5;stroke-dasharray:5.0,5.0;" x1="971.9219" x2="971.9219" y1="81.2969" y2="1276.1484"/></g><g><title>SentenceGenerator</title><rect fill="#000000" fill-opacity="0.00000" height="1194.8516" width="8" x="1116.3188" y="81.2969"/><line style="stroke:#181818;stroke-width:0.5;stroke-dasharray:5.0,5.0;" x1="1119.9424" x2="1119.9424" y1="81.2969" y2="1276.1484"/></g><g><title>Dictionary</title><rect fill="#000000" fill-opacity="0.00000" height="1194.8516" width="8" x="1593.7407" y="81.2969"/><line style="stroke:#181818;stroke-width:0.5;stroke-dasharray:5.0,5.0;" x1="1596.8384" x2="1596.8384" y1="81.2969" y2="1276.1484"/></g><g><title>History</title><rect fill="#000000" fill-opacity="0.00000" height="1194.8516" width="8" x="1678.5464" y="81.2969"/><line style="stroke:#181818;stroke-width:0.5;stroke-dasharray:5.0,5.0;" x1="1681.6431" x2="1681.6431" y1="81.2969" y2="1276.1484"/></g><g><title>GeneratedSentence</title><rect fill="#000000" fill-opacity="0.00000" height="1194.8516" width="8" x="1797.4155" y="81.2969"/><line style="stroke:#181818;stroke-width:0.5;stroke-dasharray:5.0,5.0;" x1="1800.4497" x2="1800.4497" y1="81.2969" y2="1276.1484"/></g><g><title>GenerationResult</title><rect fill="#000000" fill-opacity="0.00000" height="1194.8516" width="8" x="1952.375" y="81.2969"/><line style="stroke:#181818;stroke-width:0.5;stroke-dasharray:5.0,5.0;" x1="1955.3813" x2="1955.3813" y1="81.2969" y2="1276.1484"/></g><g class="participant participant-head" data-participant="User"><text fill="#000000" font-family="sans-serif" font-size="14" lengthAdjust="spacing" textLength="31.9102" x="5" y="77.9951">User</text><ellipse cx="23.9551" cy="13.5" fill="#E2E2F0" rx="8" ry="8" style="stroke:#181818;stroke-width:0.5;"/><path d="M23.9551,21.5 L23.9551,48.5 M10.9551,29.5 L36.9551,29.5 M23.9551,48.5 L10.9551,63.5 M23.9551,48.5 L36.9551,63.5" fill="none" style="stroke:#181818;stroke-width:0.5;"/></g><g class="participant participant-tail" data-participant="User"><text fill="#000000" font-family="sans-serif" font-size="14" lengthAdjust="spacing" textLength="31.9102" x="5" y="1288.1436">User</text><ellipse cx="23.9551" cy="1299.9453" fill="#E2E2F0" rx="8" ry="8" style="stroke:#181818;stroke-width:0.5;"/><path d="M23.9551,1307.9453 L23.9551,1334.9453 M10.9551,1315.9453 L36.9551,1315.9453 M23.9551,1334.9453 L10.9551,1349.9453 M23.9551,1334.9453 L36.9551,1349.9453" fill="none" style="stroke:#181818;stroke-width:0.5;"/></g><g class="participant participant-head" data-participant="Controller"><rect fill="#E2E2F0" height="30.2969" rx="2.5" ry="2.5" style="stroke:#181818;stroke-width:0.5;" width="83.1729" x="295.2314" y="50"/><text fill="#000000" font-family="sans-serif" font-size="14" lengthAdjust="spacing" textLength="69.1729" x="302.2314" y="69.9951">Controller</text></g><g class="participant participant-tail" data-participant="Controller"><rect fill="#E2E2F0" height="30.2969" rx="2.5" ry="2.5" style="stroke:#181818;stroke-width:0.5;" width="83.1729" x="295.2314" y="1275.1484"/><text fill="#000000" font-family="sans-serif" font-size="14" lengthAdjust="spacing" textLength="69.1729" x="302.2314" y="1295.1436">Controller</text></g><g class="participant participant-head" data-participant="TemplateGen"><rect fill="#E2E2F0" height="30.2969" rx="2.5" ry="2.5" style="stroke:#181818;stroke-width:0.5;" width="217.0137" x="388.4043" y="50"/><text fill="#000000" font-family="sans-serif" font-size="14" lengthAdjust="spacing" textLength="203.0137" x="395.4043" y="69.9951">SentenceTemplateGenerator</text></g><g class="participant participant-tail" data-participant="TemplateGen"><rect fill="#E2E2F0" height="30.2969" rx="2.5" ry="2.5" style="stroke:#181818;stroke-width:0.5;" width="217.0137" x="388.4043" y="1275.1484"/><text fill="#000000" font-family="sans-serif" font-size="14" lengthAdjust="spacing" textLength="203.0137" x="395.4043" y="1295.1436">SentenceTemplateGenerator</text></g><g class="participant participant-head" data-participant="Service"><rect fill="#E2E2F0" height="30.2969" rx="2.5" ry="2.5" style="stroke:#181818;stroke-width:0.5;" width="65.7412" x="672.7437" y="50"/><text fill="#000000" font-family="sans-serif" font-size="14" lengthAdjust="spacing" textLength="51.7412" x="679.7437" y="69.9951">Service</text></g><g class="participant participant-tail" data-participant="Service"><rect fill="#E2E2F0" height="30.2969" rx="2.5" ry="2.5" style="stroke:#181818;stroke-width:0.5;" width="65.7412" x="672.7437" y="1275.1484"/><text fill="#000000" font-family="sans-serif" font-size="14" lengthAdjust="spacing" textLength="51.7412" x="679.7437" y="1295.1436">Service</text></g><g class="participant participant-head" data-participant="API"><rect fill="#E2E2F0" height="30.2969" rx="2.5" ry="2.5" style="stroke:#181818;stroke-width:0.5;" width="126.0205" x="908.9219" y="50"/><text fill="#000000" font-family="sans-serif" font-size="14" lengthAdjust="spacing" textLength="112.0205" x="915.9219" y="69.9951">GoogleAPICaller</text></g><g class="participant participant-tail" data-participant="API"><rect fill="#E2E2F0" height="30.2969" rx="2.5" ry="2.5" style="stroke:#181818;stroke-width:0.5;" width="126.0205" x="908.9219" y="1275.1484"/><text fill="#000000" font-family="sans-serif" font-size="14" lengthAdjust="spacing" textLength="112.0205" x="915.9219" y="1295.1436">GoogleAPICaller</text></g><g class="participant participant-head" data-participant="Generator"><rect fill="#E2E2F0" height="30.2969" rx="2.5" ry="2.5" style="stroke:#181818;stroke-width:0.5;" width="150.7529" x="1044.9424" y="50"/><text fill="#000000" font-family="sans-serif" font-size="14" lengthAdjust="spacing" textLength="136.7529" x="1051.9424" y="69.9951">SentenceGenerator</text></g><g class="participant participant-tail" data-participant="Generator"><rect fill="#E2E2F0" height="30.2969" rx="2.5" ry="2.5" style="stroke:#181818;stroke-width:0.5;" width="150.7529" x="1044.9424" y="1275.1484"/><text fill="#000000" font-family="sans-serif" font-size="14" lengthAdjust="spacing" textLength="136.7529" x="1051.9424" y="1295.1436">SentenceGenerator</text></g><g class="participant participant-head" data-participant="Dictionary"><rect fill="#E2E2F0" height="30.2969" rx="2.5" ry="2.5" style="stroke:#181818;stroke-width:0.5;" width="85.8047" x="1554.8384" y="50"/><text fill="#000000" font-family="sans-serif" font-size="14" lengthAdjust="spacing" textLength="71.8047" x="1561.8384" y="69.9951">Dictionary</text></g><g class="participant participant-tail" data-participant="Dictionary"><rect fill="#E2E2F0" height="30.2969" rx="2.5" ry="2.5" style="stroke:#181818;stroke-width:0.5;" width="85.8047" x="1554.8384" y="1275.1484"/><text fill="#000000" font-family="sans-serif" font-size="14" lengthAdjust="spacing" textLength="71.8047" x="1561.8384" y="1295.1436">Dictionary</text></g><g class="participant participant-head" data-participant="History"><rect fill="#E2E2F0" height="30.2969" rx="2.5" ry="2.5" style="stroke:#181818;stroke-width:0.5;" width="63.8066" x="1650.6431" y="50"/><text fill="#000000" font-family="sans-serif" font-size="14" lengthAdjust="spacing" textLength="49.8066" x="1657.6431" y="69.9951">History</text></g><g class="participant participant-tail" data-participant="History"><rect fill="#E2E2F0" height="30.2969" rx="2.5" ry="2.5" style="stroke:#181818;stroke-width:0.5;" width="63.8066" x="1650.6431" y="1275.1484"/><text fill="#000000" font-family="sans-serif" font-size="14" lengthAdjust="spacing" textLength="49.8066" x="1657.6431" y="1295.1436">History</text></g><g class="participant participant-head" data-participant="GeneratedSentence"><rect fill="#E2E2F0" height="30.2969" rx="2.5" ry="2.5" style="stroke:#181818;stroke-width:0.5;" width="153.9316" x="1724.4497" y="50"/><text fill="#000000" font-family="sans-serif" font-size="14" lengthAdjust="spacing" textLength="139.9316" x="1731.4497" y="69.9951">GeneratedSentence</text></g><g class="participant participant-tail" data-participant="GeneratedSentence"><rect fill="#E2E2F0" height="30.2969" rx="2.5" ry="2.5" style="stroke:#181818;stroke-width:0.5;" width="153.9316" x="1724.4497" y="1275.1484"/><text fill="#000000" font-family="sans-serif" font-size="14" lengthAdjust="spacing" textLength="139.9316" x="1731.4497" y="1295.1436">GeneratedSentence</text></g><g class="participant participant-head" data-participant="GenerationResult"><rect fill="#E2E2F0" height="30.2969" rx="2.5" ry="2.5" style="stroke:#181818;stroke-width:0.5;" width="135.9873" x="1888.3813" y="50"/><text fill="#000000" font-family="sans-serif" font-size="14" lengthAdjust="spacing" textLength="121.9873" x="1895.3813" y="69.9951">GenerationResult</text></g><g class="participant participant-tail" data-participant="GenerationResult"><rect fill="#E2E2F0" height="30.2969" rx="2.5" ry="2.5" style="stroke:#181818;stroke-width:0.5;" width="135.9873" x="1888.3813" y="1275.1484"/><text fill="#000000" font-family="sans-serif" font-size="14" lengthAdjust="spacing" textLength="121.9873" x="1895.3813" y="1295.1436">GenerationResult</text></g><g><title>Controller</title><rect fill="#FFFFFF" height="1145.7188" style="stroke:#181818;stroke-width:1;" width="10" x="331.8179" y="112.4297"/></g><g><title>SentenceTemplateGenerator</title><rect fill="#FFFFFF" height="29.1328" style="stroke:#181818;stroke-width:1;" width="10" x="491.9111" y="165.6953"/></g><g><title>Service</title><rect fill="#FFFFFF" height="998.0547" style="stroke:#181818;stroke-width:1;" width="10" x="700.6143" y="230.9609"/></g><g><title>GoogleAPICaller</title><rect fill="#FFFFFF" height="29.1328" style="stroke:#181818;stroke-width:1;" width="10" x="966.9321" y="260.0938"/></g><g><title>GoogleAPICaller</title><rect fill="#FFFFFF" height="29.1328" style="stroke:#181818;stroke-width:1;" width="10" x="966.9321" y="737.0859"/></g><g><title>GoogleAPICaller</title><rect fill="#FFFFFF" height="29.1328" style="stroke:#181818;stroke-width:1;" width="10" x="966.9321" y="974.9531"/></g><g><title>SentenceGenerator</title><rect fill="#FFFFFF" height="365.4609" style="stroke:#181818;stroke-width:1;" width="10" x="1115.3188" y="342.4922"/></g><g><title>SentenceGenerator</title><rect fill="#FFFFFF" height="113.3984" style="stroke:#181818;stroke-width:1;" width="10" x="1120.3188" y="558.4219"/></g><g><title>SentenceGenerator</title><rect fill="#FFFFFF" height="29.1328" style="stroke:#181818;stroke-width:1;" width="10" x="1115.3188" y="916.6875"/></g><g><title>Dictionary</title><rect fill="#FFFFFF" height="29.1328" style="stroke:#181818;stroke-width:1;" width="10" x="1592.7407" y="395.7578"/></g><g><title>Dictionary</title><rect fill="#FFFFFF" height="29.1328" style="stroke:#181818;stroke-width:1;" width="10" x="1592.7407" y="485.1563"/></g><g><title>History</title><rect fill="#FFFFFF" height="29.1328" style="stroke:#181818;stroke-width:1;" width="10" x="1677.5464" y="1112.4844"/></g><g><title>GeneratedSentence</title><rect fill="#FFFFFF" height="29.1328" style="stroke:#181818;stroke-width:1;" width="10" x="1796.4155" y="819.4844"/></g><g><title>GeneratedSentence</title><rect fill="#FFFFFF" height="29.1328" style="stroke:#181818;stroke-width:1;" width="10" x="1796.4155" y="1040.2188"/></g><g><title>GenerationResult</title><rect fill="#FFFFFF" height="29.1328" style="stroke:#181818;stroke-width:1;" width="10" x="1951.375" y="1170.75"/></g><g class="message" data-participant-1="User" data-participant-2="Controller"><polygon fill="#181818" points="319.8179,108.4297,329.8179,112.4297,319.8179,116.4297,323.8179,112.4297" style="stroke:#181818;stroke-width:1;"/><line style="stroke:#181818;stroke-width:1;" x1="23.9551" x2="325.8179" y1="112.4297" y2="112.4297"/><text fill="#000000" font-family="sans-serif" font-size="13" lengthAdjust="spacing" textLength="288.8628" x="30.9551" y="107.3638">generate(input, addToDict, count, template)</text></g><path d="M285.2314,127.4297 L349.6743,127.4297 L349.6743,134.5625 L339.6743,144.5625 L285.2314,144.5625 L285.2314,127.4297" fill="#EEEEEE" style="stroke:#000000;stroke-width:1.5;"/><rect fill="none" height="75.3984" style="stroke:#000000;stroke-width:1.5;" width="330.1865" x="285.2314" y="127.4297"/><text fill="#000000" font-family="sans-serif" font-size="13" font-weight="bold" lengthAdjust="spacing" textLength="19.4429" x="300.2314" y="140.4966">alt</text><text fill="#000000" font-family="sans-serif" font-size="11" font-weight="bold" lengthAdjust="spacing" textLength="188.1924" x="364.6743" y="139.6401">[genera template selezionato]</text><g class="message" data-participant-1="Controller" data-participant-2="TemplateGen"><polygon fill="#181818" points="479.9111,161.6953,489.9111,165.6953,479.9111,169.6953,483.9111,165.6953" style="stroke:#181818;stroke-width:1;"/><line style="stroke:#181818;stroke-width:1;" x1="341.8179" x2="485.9111" y1="165.6953" y2="165.6953"/><text fill="#000000" font-family="sans-serif" font-size="13" lengthAdjust="spacing" textLength="130.5649" x="348.8179" y="160.6294">generateTemplate()</text></g><g class="message" data-participant-1="TemplateGen" data-participant-2="Controller"><polygon fill="#181818" points="352.8179,190.8281,342.8179,194.8281,352.8179,198.8281,348.8179,194.8281" style="stroke:#181818;stroke-width:1;"/><line style="stroke:#181818;stroke-width:1;stroke-dasharray:2.0,2.0;" x1="346.8179" x2="495.9111" y1="194.8281" y2="194.8281"/><text fill="#000000" font-family="sans-serif" font-size="13" lengthAdjust="spacing" textLength="58.6841" x="358.8179" y="189.7622">template</text></g><g class="message" data-participant-1="Controller" data-participant-2="Service"><polygon fill="#181818" points="688.6143,226.9609,698.6143,230.9609,688.6143,234.9609,692.6143,230.9609" style="stroke:#181818;stroke-width:1;"/><line style="stroke:#181818;stroke-width:1;" x1="341.8179" x2="694.6143" y1="230.9609" y2="230.9609"/><text fill="#000000" font-family="sans-serif" font-size="13" lengthAdjust="spacing" textLength="339.7964" x="348.8179" y="225.895">generatePhrases(input, addToDict, count, template)</text></g><g class="message" data-participant-1="Service" data-participant-2="API"><polygon fill="#181818" points="954.9321,256.0938,964.9321,260.0938,954.9321,264.0938,958.9321,260.0938" style="stroke:#181818;stroke-width:1;"/><line style="stroke:#181818;stroke-width:1;" x1="710.6143" x2="960.9321" y1="260.0938" y2="260.0938"/><text fill="#000000" font-family="sans-serif" font-size="13" lengthAdjust="spacing" textLength="125.6899" x="717.6143" y="255.0278">getStructure(input)</text></g><g class="message" data-participant-1="API" data-participant-2="Service"><polygon fill="#181818" points="721.6143,285.2266,711.6143,289.2266,721.6143,293.2266,717.6143,289.2266" style="stroke:#181818;stroke-width:1;"/><line style="stroke:#181818;stroke-width:1;stroke-dasharray:2.0,2.0;" x1="715.6143" x2="970.9321" y1="289.2266" y2="289.2266"/><text fill="#000000" font-family="sans-serif" font-size="13" lengthAdjust="spacing" textLength="121.729" x="727.6143" y="284.1606">SentenceStructure</text></g><path d="M642.7437,304.2266 L719.3677,304.2266 L719.3677,311.3594 L709.3677,321.3594 L642.7437,321.3594 L642.7437,304.2266" fill="#EEEEEE" style="stroke:#000000;stroke-width:1.5;"/><rect fill="none" height="780.125" style="stroke:#000000;stroke-width:1.5;" width="1255.6377" x="642.7437" y="304.2266"/><text fill="#000000" font-family="sans-serif" font-size="13" font-weight="bold" lengthAdjust="spacing" textLength="31.624" x="657.7437" y="317.2935">loop</text><text fill="#000000" font-family="sans-serif" font-size="11" font-weight="bold" lengthAdjust="spacing" textLength="80.0991" x="734.3677" y="316.437">[count volte]</text><g class="message" data-participant-1="Service" data-participant-2="Generator"><polygon fill="#181818" points="1103.3188,338.4922,1113.3188,342.4922,1103.3188,346.4922,1107.3188,342.4922" style="stroke:#181818;stroke-width:1;"/><line style="stroke:#181818;stroke-width:1;" x1="710.6143" x2="1109.3188" y1="342.4922" y2="342.4922"/><text fill="#000000" font-family="sans-serif" font-size="13" lengthAdjust="spacing" textLength="313.9233" x="717.6143" y="337.4263">generatePhrase(structure, addToDict, template)</text></g><path d="M1034.9424,357.4922 L1099.3853,357.4922 L1099.3853,364.625 L1089.3853,374.625 L1034.9424,374.625 L1034.9424,357.4922" fill="#EEEEEE" style="stroke:#000000;stroke-width:1.5;"/><rect fill="none" height="75.3984" style="stroke:#000000;stroke-width:1.5;" width="615.7007" x="1034.9424" y="357.4922"/><text fill="#000000" font-family="sans-serif" font-size="13" font-weight="bold" lengthAdjust="spacing" textLength="19.4429" x="1049.9424" y="370.5591">alt</text><text fill="#000000" font-family="sans-serif" font-size="11" font-weight="bold" lengthAdjust="spacing" textLength="167.938" x="1114.3853" y="369.7026">[template non selezionato]</text><g class="message" data-participant-1="Generator" data-participant-2="Dictionary"><polygon fill="#181818" points="1580.7407,391.7578,1590.7407,395.7578,1580.7407,399.7578,1584.7407,395.7578" style="stroke:#181818;stroke-width:1;"/><line style="stroke:#181818;stroke-width:1;" x1="1125.3188" x2="1586.7407" y1="395.7578" y2="395.7578"/><text fill="#000000" font-family="sans-serif" font-size="13" lengthAdjust="spacing" textLength="239.9795" x="1132.3188" y="390.6919">getRandom(SENTENCE_STRUCTURE)</text></g><g class="message" data-participant-1="Dictionary" data-participant-2="Generator"><polygon fill="#181818" points="1136.3188,420.8906,1126.3188,424.8906,1136.3188,428.8906,1132.3188,424.8906" style="stroke:#181818;stroke-width:1;"/><line style="stroke:#181818;stroke-width:1;stroke-dasharray:2.0,2.0;" x1="1130.3188" x2="1596.7407" y1="424.8906" y2="424.8906"/><text fill="#000000" font-family="sans-serif" font-size="13" lengthAdjust="spacing" textLength="58.6841" x="1142.3188" y="419.8247">template</text></g><path d="M1034.9424,446.8906 L1099.3853,446.8906 L1099.3853,454.0234 L1089.3853,464.0234 L1034.9424,464.0234 L1034.9424,446.8906" fill="#EEEEEE" style="stroke:#000000;stroke-width:1.5;"/><rect fill="none" height="75.3984" style="stroke:#000000;stroke-width:1.5;" width="615.7007" x="1034.9424" y="446.8906"/><text fill="#000000" font-family="sans-serif" font-size="13" font-weight="bold" lengthAdjust="spacing" textLength="19.4429" x="1049.9424" y="459.9575">alt</text><text fill="#000000" font-family="sans-serif" font-size="11" font-weight="bold" lengthAdjust="spacing" textLength="72.9663" x="1114.3853" y="459.1011">[addToDict]</text><g class="message" data-participant-1="Generator" data-participant-2="Dictionary"><polygon fill="#181818" points="1580.7407,481.1563,1590.7407,485.1563,1580.7407,489.1563,1584.7407,485.1563" style="stroke:#181818;stroke-width:1;"/><line style="stroke:#181818;stroke-width:1;" x1="1125.3188" x2="1586.7407" y1="485.1563" y2="485.1563"/><text fill="#000000" font-family="sans-serif" font-size="13" lengthAdjust="spacing" textLength="156.0635" x="1132.3188" y="480.0903">updateDictionary(input)</text></g><g class="message" data-participant-1="Dictionary" data-participant-2="Generator"><polygon fill="#181818" points="1136.3188,510.2891,1126.3188,514.2891,1136.3188,518.2891,1132.3188,514.2891" style="stroke:#181818;stroke-width:1;"/><line style="stroke:#181818;stroke-width:1;stroke-dasharray:2.0,2.0;" x1="1130.3188" x2="1596.7407" y1="514.2891" y2="514.2891"/><text fill="#000000" font-family="sans-serif" font-size="13" lengthAdjust="spacing" textLength="27.5107" x="1142.3188" y="509.2231">void</text></g><g class="message" data-participant-1="Generator" data-participant-2="Generator"><line style="stroke:#181818;stroke-width:1;" x1="1125.3188" x2="1172.3188" y1="545.4219" y2="545.4219"/><line style="stroke:#181818;stroke-width:1;" x1="1172.3188" x2="1172.3188" y1="545.4219" y2="558.4219"/><line style="stroke:#181818;stroke-width:1;" x1="1131.3188" x2="1172.3188" y1="558.4219" y2="558.4219"/><polygon fill="#181818" points="1141.3188,554.4219,1131.3188,558.4219,1141.3188,562.4219,1137.3188,558.4219" style="stroke:#181818;stroke-width:1;"/><text fill="#000000" font-family="sans-serif" font-size="13" lengthAdjust="spacing" textLength="443.4219" x="1137.3188" y="540.356">fillTemplate(template, names, verbs, adjectives, usedInputElement)</text></g><path d="M1034.9424,578.4219 L1111.5664,578.4219 L1111.5664,585.5547 L1101.5664,595.5547 L1034.9424,595.5547 L1034.9424,578.4219" fill="#EEEEEE" style="stroke:#000000;stroke-width:1.5;"/><rect fill="none" height="59.2656" style="stroke:#000000;stroke-width:1.5;" width="373.2944" x="1034.9424" y="578.4219"/><text fill="#000000" font-family="sans-serif" font-size="13" font-weight="bold" lengthAdjust="spacing" textLength="31.624" x="1049.9424" y="591.4888">loop</text><text fill="#000000" font-family="sans-serif" font-size="11" font-weight="bold" lengthAdjust="spacing" textLength="276.6704" x="1126.5664" y="590.6323">[finché il template contiene dei placeholder]</text><g class="message" data-participant-1="Generator" data-participant-2="Generator"><line style="stroke:#181818;stroke-width:1;" x1="1130.3188" x2="1172.3188" y1="616.6875" y2="616.6875"/><line style="stroke:#181818;stroke-width:1;" x1="1172.3188" x2="1172.3188" y1="616.6875" y2="629.6875"/><line style="stroke:#181818;stroke-width:1;" x1="1131.3188" x2="1172.3188" y1="629.6875" y2="629.6875"/><polygon fill="#181818" points="1141.3188,625.6875,1131.3188,629.6875,1141.3188,633.6875,1137.3188,629.6875" style="stroke:#181818;stroke-width:1;"/><text fill="#000000" font-family="sans-serif" font-size="13" lengthAdjust="spacing" textLength="134.4243" x="1137.3188" y="611.6216">replacePlaceholder()</text></g><g class="message" data-participant-1="Generator" data-participant-2="Generator"><line style="stroke:#181818;stroke-width:1;" x1="1130.3188" x2="1172.3188" y1="670.8203" y2="670.8203"/><line style="stroke:#181818;stroke-width:1;" x1="1172.3188" x2="1172.3188" y1="670.8203" y2="683.8203"/><line style="stroke:#181818;stroke-width:1;" x1="1125.3188" x2="1172.3188" y1="683.8203" y2="683.8203"/><polygon fill="#181818" points="1135.3188,679.8203,1125.3188,683.8203,1135.3188,687.8203,1131.3188,683.8203" style="stroke:#181818;stroke-width:1;"/><text fill="#000000" font-family="sans-serif" font-size="13" lengthAdjust="spacing" textLength="272.7524" x="1137.3188" y="665.7544">appendReplacement(result, replacement)</text></g><g class="message" data-participant-1="Generator" data-participant-2="Service"><polygon fill="#181818" points="721.6143,703.9531,711.6143,707.9531,721.6143,711.9531,717.6143,707.9531" style="stroke:#181818;stroke-width:1;"/><line style="stroke:#181818;stroke-width:1;stroke-dasharray:2.0,2.0;" x1="715.6143" x2="1119.3188" y1="707.9531" y2="707.9531"/><text fill="#000000" font-family="sans-serif" font-size="13" lengthAdjust="spacing" textLength="44.5732" x="727.6143" y="702.8872">phrase</text></g><g class="message" data-participant-1="Service" data-participant-2="API"><polygon fill="#181818" points="954.9321,733.0859,964.9321,737.0859,954.9321,741.0859,958.9321,737.0859" style="stroke:#181818;stroke-width:1;"/><line style="stroke:#181818;stroke-width:1;" x1="710.6143" x2="960.9321" y1="737.0859" y2="737.0859"/><text fill="#000000" font-family="sans-serif" font-size="13" lengthAdjust="spacing" textLength="219.7686" x="717.6143" y="732.02">getModerationCategories(phrase)</text></g><g class="message" data-participant-1="API" data-participant-2="Service"><polygon fill="#181818" points="721.6143,762.2188,711.6143,766.2188,721.6143,770.2188,717.6143,766.2188" style="stroke:#181818;stroke-width:1;"/><line style="stroke:#181818;stroke-width:1;stroke-dasharray:2.0,2.0;" x1="715.6143" x2="970.9321" y1="766.2188" y2="766.2188"/><text fill="#000000" font-family="sans-serif" font-size="13" lengthAdjust="spacing" textLength="232.3179" x="727.6143" y="761.1528">List&lt;PhraseClassificationAttribute&gt;</text></g><path d="M652.7437,781.2188 L717.1865,781.2188 L717.1865,788.3516 L707.1865,798.3516 L652.7437,798.3516 L652.7437,781.2188" fill="#EEEEEE" style="stroke:#000000;stroke-width:1.5;"/><rect fill="none" height="296.1328" style="stroke:#000000;stroke-width:1.5;" width="1235.6377" x="652.7437" y="781.2188"/><text fill="#000000" font-family="sans-serif" font-size="13" font-weight="bold" lengthAdjust="spacing" textLength="19.4429" x="667.7437" y="794.2856">alt</text><text fill="#000000" font-family="sans-serif" font-size="11" font-weight="bold" lengthAdjust="spacing" textLength="82.9565" x="732.1865" y="793.4292">[frase valida]</text><g class="message" data-participant-1="Service" data-participant-2="GeneratedSentence"><polygon fill="#181818" points="1784.4155,815.4844,1794.4155,819.4844,1784.4155,823.4844,1788.4155,819.4844" style="stroke:#181818;stroke-width:1;"/><line style="stroke:#181818;stroke-width:1;" x1="710.6143" x2="1790.4155" y1="819.4844" y2="819.4844"/><text fill="#000000" font-family="sans-serif" font-size="13" lengthAdjust="spacing" textLength="292.062" x="717.6143" y="814.4185">new GeneratedSentence(phrase, categories)</text></g><g class="message" data-participant-1="GeneratedSentence" data-participant-2="Service"><polygon fill="#181818" points="721.6143,844.6172,711.6143,848.6172,721.6143,852.6172,717.6143,848.6172" style="stroke:#181818;stroke-width:1;"/><line style="stroke:#181818;stroke-width:1;stroke-dasharray:2.0,2.0;" x1="715.6143" x2="1800.4155" y1="848.6172" y2="848.6172"/><text fill="#000000" font-family="sans-serif" font-size="13" lengthAdjust="spacing" textLength="129.9365" x="727.6143" y="843.5513">GeneratedSentence</text></g><line style="stroke:#000000;stroke-width:1;stroke-dasharray:2.0,2.0;" x1="652.7437" x2="1888.3813" y1="857.6172" y2="857.6172"/><text fill="#000000" font-family="sans-serif" font-size="11" font-weight="bold" lengthAdjust="spacing" textLength="282.1221" x="657.7437" y="867.8276">[frase NON valida (tentativi &lt; maxAttempts)]</text><path d="M662.7437,878.4219 L739.3677,878.4219 L739.3677,885.5547 L729.3677,895.5547 L662.7437,895.5547 L662.7437,878.4219" fill="#EEEEEE" style="stroke:#000000;stroke-width:1.5;"/><rect fill="none" height="133.6641" style="stroke:#000000;stroke-width:1.5;" width="542.9517" x="662.7437" y="878.4219"/><text fill="#000000" font-family="sans-serif" font-size="13" font-weight="bold" lengthAdjust="spacing" textLength="31.624" x="677.7437" y="891.4888">loop</text><text fill="#000000" font-family="sans-serif" font-size="11" font-weight="bold" lengthAdjust="spacing" textLength="167.2612" x="754.3677" y="890.6323">[retry fino a maxAttempts]</text><g class="message" data-participant-1="Service" data-participant-2="Generator"><polygon fill="#181818" points="1103.3188,912.6875,1113.3188,916.6875,1103.3188,920.6875,1107.3188,916.6875" style="stroke:#181818;stroke-width:1;"/><line style="stroke:#181818;stroke-width:1;" x1="710.6143" x2="1109.3188" y1="916.6875" y2="916.6875"/><text fill="#000000" font-family="sans-serif" font-size="13" lengthAdjust="spacing" textLength="125.5947" x="717.6143" y="911.6216">generatePhrase(...)</text></g><g class="message" data-participant-1="Generator" data-participant-2="Service"><polygon fill="#181818" points="721.6143,941.8203,711.6143,945.8203,721.6143,949.8203,717.6143,945.8203" style="stroke:#181818;stroke-width:1;"/><line style="stroke:#181818;stroke-width:1;stroke-dasharray:2.0,2.0;" x1="715.6143" x2="1119.3188" y1="945.8203" y2="945.8203"/><text fill="#000000" font-family="sans-serif" font-size="13" lengthAdjust="spacing" textLength="44.5732" x="727.6143" y="940.7544">phrase</text></g><g class="message" data-participant-1="Service" data-participant-2="API"><polygon fill="#181818" points="954.9321,970.9531,964.9321,974.9531,954.9321,978.9531,958.9321,974.9531" style="stroke:#181818;stroke-width:1;"/><line style="stroke:#181818;stroke-width:1;" x1="710.6143" x2="960.9321" y1="974.9531" y2="974.9531"/><text fill="#000000" font-family="sans-serif" font-size="13" lengthAdjust="spacing" textLength="187.5923" x="717.6143" y="969.8872">getModerationCategories(...)</text></g><g class="message" data-participant-1="API" data-participant-2="Service"><polygon fill="#181818" points="721.6143,1000.0859,711.6143,1004.0859,721.6143,1008.0859,717.6143,1004.0859" style="stroke:#181818;stroke-width:1;"/><line style="stroke:#181818;stroke-width:1;stroke-dasharray:2.0,2.0;" x1="715.6143" x2="970.9321" y1="1004.0859" y2="1004.0859"/><text fill="#000000" font-family="sans-serif" font-size="13" lengthAdjust="spacing" textLength="68.1421" x="727.6143" y="999.02">categories</text></g><g class="message" data-participant-1="Service" data-participant-2="GeneratedSentence"><polygon fill="#181818" points="1784.4155,1036.2188,1794.4155,1040.2188,1784.4155,1044.2188,1788.4155,1040.2188" style="stroke:#181818;stroke-width:1;"/><line style="stroke:#181818;stroke-width:1;" x1="710.6143" x2="1790.4155" y1="1040.2188" y2="1040.2188"/><text fill="#000000" font-family="sans-serif" font-size="13" lengthAdjust="spacing" textLength="201.4492" x="717.6143" y="1035.1528">new GeneratedSentence("", [])</text></g><g class="message" data-participant-1="GeneratedSentence" data-participant-2="Service"><polygon fill="#181818" points="721.6143,1065.3516,711.6143,1069.3516,721.6143,1073.3516,717.6143,1069.3516" style="stroke:#181818;stroke-width:1;"/><line style="stroke:#181818;stroke-width:1;stroke-dasharray:2.0,2.0;" x1="715.6143" x2="1800.4155" y1="1069.3516" y2="1069.3516"/><text fill="#000000" font-family="sans-serif" font-size="13" lengthAdjust="spacing" textLength="129.9365" x="727.6143" y="1064.2856">GeneratedSentence</text></g><g class="message" data-participant-1="Service" data-participant-2="History"><polygon fill="#181818" points="1665.5464,1108.4844,1675.5464,1112.4844,1665.5464,1116.4844,1669.5464,1112.4844" style="stroke:#181818;stroke-width:1;"/><line style="stroke:#181818;stroke-width:1;" x1="710.6143" x2="1671.5464" y1="1112.4844" y2="1112.4844"/><text fill="#000000" font-family="sans-serif" font-size="13" lengthAdjust="spacing" textLength="251.3354" x="717.6143" y="1107.4185">push(ArrayList&lt;GeneratedSentence&gt;)</text></g><g class="message" data-participant-1="History" data-participant-2="Service"><polygon fill="#181818" points="721.6143,1137.6172,711.6143,1141.6172,721.6143,1145.6172,717.6143,1141.6172" style="stroke:#181818;stroke-width:1;"/><line style="stroke:#181818;stroke-width:1;stroke-dasharray:2.0,2.0;" x1="715.6143" x2="1681.5464" y1="1141.6172" y2="1141.6172"/><text fill="#000000" font-family="sans-serif" font-size="13" lengthAdjust="spacing" textLength="27.5107" x="727.6143" y="1136.5513">void</text></g><g class="message" data-participant-1="Service" data-participant-2="GenerationResult"><polygon fill="#181818" points="1939.375,1166.75,1949.375,1170.75,1939.375,1174.75,1943.375,1170.75" style="stroke:#181818;stroke-width:1;"/><line style="stroke:#181818;stroke-width:1;" x1="710.6143" x2="1945.375" y1="1170.75" y2="1170.75"/><text fill="#000000" font-family="sans-serif" font-size="13" lengthAdjust="spacing" textLength="259.0288" x="717.6143" y="1165.6841">new GenerationResult(result, structure)</text></g><g class="message" data-participant-1="GenerationResult" data-participant-2="Service"><polygon fill="#181818" points="721.6143,1195.8828,711.6143,1199.8828,721.6143,1203.8828,717.6143,1199.8828" style="stroke:#181818;stroke-width:1;"/><line style="stroke:#181818;stroke-width:1;stroke-dasharray:2.0,2.0;" x1="715.6143" x2="1955.375" y1="1199.8828" y2="1199.8828"/><text fill="#000000" font-family="sans-serif" font-size="13" lengthAdjust="spacing" textLength="113.2739" x="727.6143" y="1194.8169">GenerationResult</text></g><g class="message" data-participant-1="Service" data-participant-2="Controller"><polygon fill="#181818" points="352.8179,1225.0156,342.8179,1229.0156,352.8179,1233.0156,348.8179,1229.0156" style="stroke:#181818;stroke-width:1;"/><line style="stroke:#181818;stroke-width:1;stroke-dasharray:2.0,2.0;" x1="346.8179" x2="704.6143" y1="1229.0156" y2="1229.0156"/><text fill="#000000" font-family="sans-serif" font-size="13" lengthAdjust="spacing" textLength="113.2739" x="358.8179" y="1223.9497">GenerationResult</text></g><g class="message" data-participant-1="Controller" data-participant-2="User"><polygon fill="#181818" points="34.9551,1254.1484,24.9551,1258.1484,34.9551,1262.1484,30.9551,1258.1484" style="stroke:#181818;stroke-width:1;"/><line style="stroke:#181818;stroke-width:1;stroke-dasharray:2.0,2.0;" x1="28.9551" x2="335.8179" y1="1258.1484" y2="1258.1484"/><text fill="#000000" font-family="sans-serif" font-size="13" lengthAdjust="spacing" textLength="113.2739" x="40.9551" y="1253.0825">GenerationResult</text></g><!--SRC=[pLRDRjim3BxxAOIU4Y3f0mn5WI8BkW9RLYJfQHW6rMOQ3OfaIBAtxets77knKR8bI_x9skqoNzhGvCUFv4TPD3TIaGSDAYkfCYnd9HM6hAGmIdBUC-z0610vxE5KSchW5WGeQX6e9f6n5wHgbaDYkvNoYSFD_TsAsYGs77-CvafoX1-9wrkM6oO5LS-9-HtJw9dQMW0eFFpOMyJQWgwuoJBR6RAyZXf2tf2d5cJ6H5cP1Q55iPUMn8BaiXBunxIzc6SKgTNuNzpIZ7BJWWHFee733rk5aHd19yg8-QFcHWIyTJPt8I5NF0hx8evUzgln39nd0QCW88eiIncrOutOt1yLrQ1VrHKlZip38J8gmQ6QdL5LRYhLDZeAisAnRik4Y9zfYCkYScn8ngKi6pQabhojEKhTYQrVranxqAIohgHa09rE6plEEmnQI34Ojdswt4YaatJJYYqLXJpDTklDVhrPhR_izjk7rVvXkvw7-90yMWV_Be9RzifCnj-JG0_9gS3N4vhmWWAgia2upkJd-O_KQycArz1E2CP01yPvs2NVa0KHz0HwGMfGZzfE_IlO3DPKQIZkR0rh3YTKtUJuhTc9xi14Vlprap3UAI77XMBeYjmPGLCEHyaBKECTZGahSExtNKnx1DXQpqRIiaIVRHDlgS-KE-eM7hCh9-feJyyHUhA0fLkLFmIFRVe7MRG7xmeZdgHYU8uqQBtMsZMsXk7slyVZ_gfPrXMdMhC3ontaZJ6AFLO6hllCt9dW1NsmaQIcd1KqJ61uDdIV3imfuDlGtXB7Oo_KCYBruPUed_DgkHnDEXqvR7hF2JYMs1Iw-RXfYoKeUM6mLJKZL-H4lsF3KA8cOkqahC3W4gAG9Q6nM_1w-M5wUNavJy8cLcTa4QO4Dzq3BxmHYkS5ECtIgz0_GpLsivzY5sFujVrhoLrSBCYdp_-DpB0ST-f6jRItCJkqIXzdDqhHPxUo0uZhw4Flxt0-Ecso-m14RBntDknXkDEbBGpcS0o6xtp4Od0l782cl0R-muv5Tyn0jdypEmSJBaxnhGm1t8NrV6WNyHi0]--></g></svg>